<?xml version="1.0" encoding="utf-8"?>
<!-- Generator: Adobe Adobe Illustrator 29.2.0, SVG Export Plug-In . SVG Version: 6.00 Build 0)  -->
<svg version="1.1" id="Marca_Enigma_TC" xmlns="http://www.w3.org/2000/svg" xmlns:xlink="http://www.w3.org/1999/xlink" x="0px"
	 y="0px" viewBox="0 0 1600 1600" style="enable-background:new 0 0 1600 1600;" xml:space="preserve">
<style type="text/css">
	.st0{stroke:#000000;stroke-width:8;stroke-miterlimit:10;}
</style>
<g id="Isologo">
	<g id="Torus_Enigma">
		<g>
			<g>
				<g>
					<path d="M728.63,832.94c-22.23-2.92-44.18-9.05-64.71-18.11c-20.58-9.08-39.96-21.02-57.22-35.51
						c-17.69-14.84-33.24-32.22-45.94-51.55c-12.87-19.58-22.87-41-29.6-63.46c-6.24-20.8-9.66-42.37-10.09-64.09
						c-0.42-21.26,1.99-42.51,7.16-63.13c5.13-20.47,12.92-40.2,23.16-58.63c10.31-18.55,23.03-35.67,37.83-50.84
						c15.08-15.46,32.21-28.79,50.88-39.61c19.35-11.21,40.21-19.68,61.88-25.12c20.94-5.26,42.53-7.61,64.11-7
						c21,0.59,41.85,4.02,61.96,10.1c20.11,6.08,39.37,14.83,57.22,25.95c18.01,11.22,34.48,24.84,48.9,40.44
						c14.76,15.96,27.25,33.94,37.17,53.31c10.48,20.46,18,42.43,22.32,65.04c4.2,22,5.21,44.6,3.15,66.9
						c-2.01,21.79-7.12,43.29-14.9,63.72c-7.82,20.51-18.54,39.92-31.59,57.54c-13.16,17.78-28.94,33.79-46.52,47.16
						c-8.8,6.69-18.06,12.75-27.68,18.19c-4.09,2.31-0.42,8.65,3.68,6.33c20.17-11.39,38.77-25.64,54.98-42.25
						c15.81-16.2,29.4-34.65,40.21-54.58c10.75-19.82,18.84-41.14,23.87-63.14c5.08-22.21,7.13-45.16,5.95-67.92
						c-1.22-23.45-5.77-46.72-13.53-68.87c-7.65-21.81-18.23-42.59-31.58-61.44c-12.77-18.04-27.89-34.35-45-48.31
						c-16.83-13.73-35.38-25.25-55.2-34.1c-19.79-8.83-40.65-15.12-62.06-18.47c-21.69-3.4-43.76-3.96-65.58-1.44
						c-22.56,2.61-44.69,8.29-65.7,16.99c-21.12,8.76-40.89,20.3-58.87,34.48c-17.27,13.62-32.56,29.62-45.6,47.36
						c-12.87,17.51-23.3,36.74-31.18,57c-7.9,20.31-13.01,41.62-15.36,63.29c-2.39,22.02-1.71,44.3,1.85,66.16
						c3.73,22.93,10.8,45.25,20.71,66.24c10.32,21.86,23.89,42.16,40.09,60.06c15.72,17.36,33.99,32.43,53.94,44.61
						c19.78,12.08,41.33,21.36,63.67,27.44c10.92,2.97,22.01,5.11,33.22,6.58c1.96,0.26,3.65-1.87,3.65-3.67
						C732.27,834.41,730.59,833.2,728.63,832.94L728.63,832.94z"/>
				</g>
			</g>
		</g>
		<g>
			<g>
				<g>
					<path d="M731.13,852.28c-22.88,2.81-46.17,2.43-68.91-1.4c-22.88-3.85-45.24-10.97-66.07-21.26
						c-21.18-10.46-40.78-24.04-57.97-40.3c-17.13-16.2-31.85-34.9-43.6-55.37c-10.69-18.64-18.83-38.66-24.18-59.49
						c-5.24-20.41-7.74-41.46-7.5-62.53c0.24-20.84,3.19-41.57,8.74-61.65c5.62-20.32,13.89-39.83,24.59-57.97
						c10.92-18.51,24.32-35.45,39.76-50.35c15.99-15.42,34.08-28.58,53.64-39.04c18.81-10.06,38.94-17.5,59.74-22.16
						c20.43-4.58,41.43-6.38,62.34-5.46c20.71,0.91,41.25,4.57,61.04,10.79c19.97,6.28,39.05,15.22,56.7,26.51
						c18.22,11.66,34.77,25.84,49.19,42c15.24,17.07,28.01,36.34,37.86,57.02c9.69,20.33,16.4,42.08,20.03,64.31
						c3.55,21.71,3.99,43.95,1.54,65.8c-2.46,21.92-8.05,43.53-16.34,63.95c-8.33,20.51-19.63,39.97-33.33,57.33
						c-6.91,8.75-14.42,17-22.45,24.72c-3.4,3.27,1.76,8.45,5.16,5.18c16.81-16.16,31.35-34.71,42.96-54.97
						c11.28-19.68,19.85-40.97,25.36-63c5.5-22.01,8.01-44.83,7.37-67.51c-0.65-22.8-4.43-45.55-11.28-67.29
						c-7.09-22.5-17.42-43.98-30.58-63.53c-12.75-18.94-28.04-36.18-45.47-50.91c-16.73-14.14-35.28-26.06-55.15-35.23
						c-19.46-8.99-40.03-15.47-61.15-19.11c-21.19-3.65-42.8-4.61-64.21-2.64c-21.67,1.99-43.07,6.8-63.46,14.47
						c-20.96,7.89-40.82,18.6-58.89,31.87c-18.22,13.39-34.66,29.15-48.58,47.02c-13.44,17.24-24.55,36.13-33.02,56.3
						c-8.34,19.85-14.09,40.74-17.02,62.09c-2.92,21.33-3.19,42.96-0.55,64.33c2.7,21.78,8.16,43.14,16.51,63.43
						c8.76,21.31,20.39,41.2,34.57,59.32c15.27,19.51,33.49,36.61,53.85,50.67c19.78,13.66,41.63,24.3,64.5,31.6
						c22.55,7.19,46.19,11.08,69.85,11.54c11.5,0.22,23-0.39,34.41-1.79c1.95-0.24,3.65-1.51,3.65-3.67
						C734.77,854.15,733.09,852.04,731.13,852.28L731.13,852.28z"/>
				</g>
			</g>
		</g>
		<g>
			<g>
				<g>
					<path d="M737.37,870.52c-22.42,8.81-46.09,14.33-70.11,16.09c-24.07,1.77-48.35-0.07-71.86-5.59
						c-24.09-5.65-47.19-15.07-68.39-27.88c-20.2-12.21-38.56-27.4-54.38-44.96c-14.35-15.92-26.48-33.8-36.07-53
						c-9.38-18.78-16.22-38.81-20.42-59.4c-4.18-20.48-5.64-41.49-4.43-62.35c1.22-21.06,5.26-41.92,11.92-61.92
						c6.82-20.49,16.48-39.97,28.51-57.86c12.37-18.39,27.3-35.03,44.18-49.35c16.26-13.79,34.44-25.3,53.76-34.24
						c18.96-8.77,39.12-14.94,59.69-18.47c20.5-3.52,41.48-4.25,62.19-2.35c20.94,1.93,41.62,6.74,61.32,14.13
						c20.33,7.62,39.56,18.17,57.08,31.02c18.03,13.23,34.26,29.08,47.94,46.82c13.2,17.12,24.13,36.16,32.2,56.25
						c7.96,19.82,13.39,40.75,15.87,61.99c2.47,21.22,2.24,42.85-0.95,63.98c-3.22,21.36-9.26,42.37-18.08,62.08
						c-4.45,9.93-9.57,19.55-15.29,28.8c-2.49,4.02,3.82,7.7,6.3,3.7c11.92-19.26,21.2-40.17,27.44-61.96
						c6.09-21.27,9.29-43.43,9.52-65.57c0.23-22-2.48-44.07-8.01-65.35c-5.57-21.44-14.06-42.16-25.12-61.33
						c-11.35-19.67-25.49-37.77-41.78-53.55c-16.46-15.94-35.15-29.65-55.33-40.46c-19.34-10.35-40.09-18.12-61.48-22.92
						c-21-4.71-42.64-6.68-64.14-5.75c-21.42,0.92-42.76,4.62-63.23,11.05c-20.66,6.5-40.51,15.73-58.75,27.45
						c-18.78,12.06-35.93,26.72-50.78,43.43c-15.08,16.98-27.92,36-37.85,56.47c-9.57,19.74-16.55,40.73-20.57,62.32
						c-3.95,21.24-5.19,42.98-3.54,64.53c1.65,21.51,6.02,42.8,13.14,63.15c7.2,20.59,17.06,40.24,29.41,58.2
						c12.75,18.55,27.99,35.34,45.26,49.73c19.88,16.57,42.16,29.95,66.13,39.61c23.19,9.35,47.8,14.97,72.71,16.85
						c24.72,1.86,49.73-0.12,73.88-5.72c11.59-2.69,22.97-6.25,34.05-10.6c1.83-0.72,3.11-2.46,2.55-4.51
						C741.37,871.33,739.21,869.8,737.37,870.52L737.37,870.52z"/>
				</g>
			</g>
		</g>
		<g>
			<g>
				<g>
					<path d="M747.96,886.63c-20.41,14.76-43,26.35-66.95,34.1c-24.01,7.76-49.14,11.71-74.37,11.6
						c-25.92-0.12-51.7-4.57-76.21-13.04c-22.01-7.61-42.89-18.48-61.82-32.1c-17.1-12.31-32.51-27-45.78-43.39
						c-13.02-16.09-23.88-33.98-32.36-52.88c-8.45-18.84-14.4-38.85-17.79-59.23c-3.43-20.59-4.07-41.67-2.06-62.45
						c2.07-21.41,7.16-42.53,14.84-62.59c7.82-20.43,18.49-39.79,31.49-57.36c12.52-16.92,27.41-32.12,43.91-45.13
						c16.29-12.85,34.39-23.5,53.42-31.69c18.9-8.14,38.94-13.74,59.28-16.77c20.57-3.07,41.61-3.3,62.26-0.88
						c21.32,2.49,42.31,8.06,62.18,16.19c20.47,8.37,39.93,19.69,57.29,33.44c16.88,13.37,32.04,29.04,44.73,46.49
						c12.49,17.17,22.78,36.01,30.35,55.88c7.6,19.94,12.64,40.92,14.74,62.18c2.12,21.47,1.42,43.27-2.28,64.53
						c-1.84,10.59-4.4,21.03-7.61,31.29c-1.41,4.51,5.63,6.44,7.03,1.95c6.74-21.52,10.54-43.97,11.22-66.53
						c0.66-22.01-1.67-44.14-6.83-65.53c-5.15-21.35-13.17-42.03-23.72-61.27c-10.57-19.29-23.77-37.18-39.05-52.96
						c-15.68-16.19-33.65-30.2-53.13-41.47c-19.65-11.37-40.92-20.07-62.92-25.65c-21.14-5.36-43.05-7.89-64.85-7.42
						c-21.28,0.45-42.55,3.7-63,9.62c-20.36,5.9-40.01,14.46-58.2,25.38c-18.36,11.02-35.32,24.47-50.21,39.9
						c-15.37,15.92-28.61,33.98-39.17,53.46c-10.74,19.8-18.87,41.11-23.92,63.09c-4.87,21.21-6.95,43.11-6.09,64.86
						c0.84,21.36,4.45,42.65,10.71,63.08c6.24,20.35,15.1,39.94,26.31,58.03c11.37,18.35,25.15,35.24,40.89,49.98
						c16.13,15.1,34.31,28.02,53.86,38.24c23.19,12.12,48.26,20.63,74.06,24.85c25.89,4.23,52.25,4.27,78.16,0.15
						c25.54-4.05,50.4-12.26,73.43-24.06c11.08-5.68,21.71-12.23,31.81-19.53c1.6-1.15,2.37-3.19,1.31-5.01
						C752.03,886.36,749.57,885.47,747.96,886.63L747.96,886.63z"/>
				</g>
			</g>
		</g>
		<g>
			<g>
				<g>
					<path d="M762.22,899.58c-30.91,37.22-72.62,64.66-119.09,77.82c-46.4,13.14-96.29,11.58-141.9-4.04
						c-40.46-13.85-76.7-38.88-104.36-71.59c-27.21-32.17-45.6-71.53-53.01-113.07c-7.77-43.59-2.98-89.17,13.16-130.34
						c15.52-39.58,41.9-74.57,75.27-100.69c33.21-25.99,73.48-43.01,115.24-48.46c43.57-5.68,88.72,0.88,128.8,19.03
						c38.87,17.6,72.77,45.69,97.25,80.77c24.33,34.87,39.35,76.1,42.66,118.59c0.84,10.71,0.94,21.47,0.37,32.21
						c-0.25,4.71,7.04,4.7,7.29,0c1.2-22.48-0.68-45.1-5.57-67.07c-4.75-21.32-12.4-42-22.56-61.31
						c-10.14-19.28-22.87-37.21-37.66-53.16c-14.82-15.99-31.81-29.99-50.3-41.5c-19.05-11.85-39.78-21.04-61.32-27.24
						c-22.07-6.35-45.09-9.62-68.05-9.64c-22.02-0.01-44.09,2.99-65.32,8.91c-20.9,5.82-41.06,14.47-59.71,25.58
						c-18.57,11.07-35.74,24.62-50.82,40.16c-15.15,15.61-28.27,33.28-38.8,52.34c-10.89,19.73-19.08,41-24.23,62.96
						c-5.21,22.24-7.43,45.24-6.41,68.07c0.99,22.12,4.94,44.13,11.79,65.18c6.73,20.69,16.17,40.51,28.03,58.72
						c11.79,18.08,25.91,34.66,41.95,49.06c16.32,14.66,34.58,27.16,54.2,36.93c20.18,10.05,41.71,17.33,63.85,21.5
						c25.25,4.76,51.17,5.67,76.66,2.36c24.82-3.22,48.96-10.17,71.7-20.68c22.25-10.28,42.91-23.98,61.18-40.37
						c8.91-8,17.21-16.65,24.86-25.87C770.36,901.17,765.23,895.96,762.22,899.58L762.22,899.58z"/>
				</g>
			</g>
		</g>
		<g>
			<g>
				<g>
					<path d="M779.24,908.57c-9.79,20.68-22.41,39.97-37.58,57.08c-15.18,17.12-32.74,32.06-52.11,44.18
						c-19.76,12.37-41.25,21.77-63.74,27.86c-22.65,6.13-46.15,8.86-69.6,8.17c-21.75-0.64-43.33-4.31-64.09-10.86
						c-20.24-6.39-39.56-15.53-57.4-27.05c-17.72-11.44-33.87-25.25-48.01-40.93c-14.24-15.79-26.32-33.49-35.91-52.49
						c-9.83-19.48-16.9-40.31-21.1-61.73c-4.32-22.04-5.51-44.71-3.63-67.1c1.83-21.72,6.72-43.17,14.34-63.57
						c7.43-19.89,17.6-38.74,29.96-55.96c12.31-17.15,26.97-32.63,43.29-45.96c16.49-13.47,34.87-24.65,54.32-33.24
						c20.02-8.85,41.38-14.8,63.04-17.8c22.25-3.08,45.1-3.04,67.33,0.28c21.61,3.22,42.85,9.39,62.77,18.43
						c19.59,8.89,38.05,20.4,54.58,34.21c16.52,13.81,31.25,29.81,43.53,47.54c12.46,18,22.49,37.68,29.6,58.41
						c3.55,10.34,6.38,20.92,8.51,31.65c0.92,4.62,7.95,2.67,7.03-1.95c-4.48-22.44-12.07-44.22-22.52-64.56
						c-10.19-19.84-23.14-38.26-38.25-54.62c-15.02-16.26-32.26-30.48-51.03-42.15c-19.02-11.83-39.7-21.04-61.2-27.25
						c-21.99-6.35-44.93-9.56-67.82-9.54c-23.06,0.02-46.2,3.28-68.36,9.71c-21.25,6.16-41.7,15.26-60.52,26.94
						c-18.48,11.47-35.48,25.43-50.33,41.37c-14.81,15.9-27.58,33.78-37.76,53.01c-10.35,19.56-18.11,40.54-22.88,62.18
						c-4.9,22.25-6.73,45.19-5.39,67.94c1.35,22.89,5.77,45.62,13.32,67.26c7.28,20.88,17.33,40.79,29.9,58.95
						c12.39,17.91,27.09,34.19,43.71,48.23c16.63,14.04,35.03,25.93,54.73,35.12c20.01,9.34,41.21,16.01,62.98,19.62
						c22.94,3.8,46.34,4.39,69.44,1.62c24.31-2.92,47.99-9.37,70.41-19.28c21.61-9.55,41.73-22.32,59.72-37.66
						c17.82-15.19,33.43-32.99,46.29-52.59c6.24-9.51,11.8-19.46,16.67-29.75C787.54,908.03,781.26,904.31,779.24,908.57
						L779.24,908.57z"/>
				</g>
			</g>
		</g>
		<g>
			<g>
				<g>
					<path d="M797.95,913.03c-4.28,22.06-11.53,43.5-21.69,63.53c-10.17,20.05-23.07,38.65-38.37,55.08
						c-15.58,16.75-33.51,31.19-53.19,42.8c-20.06,11.83-41.8,20.65-64.39,26.23c-21.17,5.23-42.98,7.49-64.76,6.74
						c-21.2-0.73-42.23-4.37-62.49-10.7c-20.09-6.28-39.3-15.25-57.07-26.57c-17.88-11.39-34.2-25.16-48.47-40.88
						c-14.61-16.08-26.93-34.18-36.66-53.63c-10.04-20.08-17.22-41.59-21.39-63.67c-4.02-21.35-5.05-43.25-3.18-64.89
						c1.83-21.15,6.57-42.05,13.87-61.97c7.26-19.83,17.21-38.66,29.35-55.91c12.25-17.4,26.9-33.11,43.29-46.63
						c16.85-13.9,35.71-25.37,55.67-34.14c20.81-9.14,43.11-15.34,65.65-18.16c22.15-2.77,44.75-2.49,66.8,1.06
						c21.56,3.47,42.7,9.86,62.52,19.06c19.8,9.19,38.41,21.05,55.01,35.28c16.86,14.45,31.72,31.21,43.95,49.77
						c6.07,9.22,11.5,18.86,16.28,28.82c2.04,4.25,8.33,0.53,6.3-3.7c-10.03-20.92-23.01-40.37-38.46-57.64
						c-15.06-16.85-32.51-31.57-51.57-43.66c-18.95-12.02-39.59-21.43-61.06-27.88c-21.78-6.54-44.52-10.02-67.24-10.29
						c-23.29-0.28-46.67,2.85-69.09,9.19c-22.17,6.26-43.54,15.63-63.13,27.81c-18.75,11.66-35.96,25.89-50.92,42.18
						c-14.72,16.02-27.35,34.01-37.38,53.34c-10.03,19.31-17.56,39.95-22.23,61.22c-4.73,21.56-6.62,43.77-5.46,65.82
						c1.2,22.81,5.55,45.46,12.91,67.07c7.39,21.7,17.71,42.41,30.77,61.24c12.56,18.11,27.49,34.54,44.4,48.63
						c16.69,13.92,35.14,25.65,54.86,34.72c19.76,9.08,40.63,15.6,62.07,19.18c21.8,3.63,44.03,4.39,66.01,2.01
						c23.07-2.49,45.73-8.18,67.2-17.01c22.19-9.13,42.91-21.37,61.58-36.49c18.12-14.67,34.04-31.99,47.32-51.19
						c13.1-18.94,23.5-39.75,30.9-61.58c3.58-10.54,6.41-21.32,8.54-32.25C805.88,910.37,798.85,908.4,797.95,913.03L797.95,913.03z
						"/>
				</g>
			</g>
		</g>
		<g>
			<g>
				<g>
					<path d="M817.19,912.71c1.36,23.32-0.57,46.75-5.88,69.49c-5.33,22.78-13.92,44.72-25.54,65
						c-11.93,20.82-26.95,39.73-44.5,56.04c-17.21,16.01-36.79,29.4-57.85,39.75c-19.2,9.43-39.7,16.17-60.71,20.11
						c-20.5,3.84-41.52,4.86-62.31,3.21c-20.75-1.64-41.28-6.09-60.91-13.06c-19.69-6.99-38.43-16.63-55.64-28.52
						c-17.64-12.19-33.56-26.86-47.31-43.34c-14.16-16.97-25.93-35.99-34.98-56.18c-8.77-19.59-14.8-40.45-18.03-61.68
						c-3.15-20.67-3.46-41.81-1.18-62.59c2.28-20.68,7.35-41.09,14.83-60.49c7.55-19.59,17.78-38.16,30.16-55.09
						c12.72-17.4,27.93-33,44.82-46.33c17.9-14.12,37.97-25.74,59.12-34.16c20.69-8.24,42.55-13.63,64.72-15.76
						c21.76-2.09,43.83-1.24,65.34,2.67c21.49,3.91,42.49,10.71,62.14,20.31c20.04,9.8,38.72,22.37,55.27,37.38
						c8.19,7.43,15.86,15.44,22.98,23.92c3.03,3.61,8.17-1.6,5.16-5.18c-14.92-17.78-32.33-33.39-51.6-46.27
						c-18.88-12.63-39.56-22.55-61.16-29.5c-21.39-6.88-43.75-10.77-66.19-11.6c-22.64-0.84-45.44,1.53-67.45,6.96
						c-22.76,5.62-44.73,14.61-64.96,26.49c-19.66,11.54-37.79,25.82-53.56,42.32c-15.07,15.76-28.06,33.58-38.44,52.79
						c-10.26,18.98-18.07,39.36-23.08,60.37c-4.99,20.89-7.3,42.47-6.78,63.95c0.53,21.74,3.92,43.46,10.11,64.29
						c6.42,21.61,15.84,42.36,27.85,61.42c12.02,19.07,26.6,36.56,43.31,51.66c16.13,14.58,34.19,27.03,53.58,36.82
						c19.2,9.7,39.66,16.91,60.71,21.29c20.96,4.36,42.49,6.04,63.86,4.83c21.67-1.22,43.21-5.31,63.8-12.23
						c21.57-7.25,42.13-17.51,60.9-30.41c20.53-14.11,38.97-31.26,54.35-50.91c14.97-19.12,27.03-40.31,35.87-62.95
						c8.75-22.42,14.13-46.1,16.1-70.09c0.95-11.54,1.07-23.13,0.39-34.69C824.21,908.02,816.91,907.99,817.19,912.71L817.19,912.71
						z"/>
				</g>
			</g>
		</g>
		<g>
			<g>
				<g>
					<path d="M835.75,907.59c7.18,22.52,11.1,45.98,11.5,69.63c0.4,23.68-2.66,47.33-9.14,70.1c-6.59,23.18-16.69,45.25-29.85,65.4
						c-12.96,19.84-28.9,37.69-47.02,52.9c-16.54,13.87-35.03,25.41-54.67,34.29c-19.1,8.64-39.42,14.63-60.09,17.97
						c-20.64,3.33-41.76,3.83-62.55,1.67c-20.96-2.17-41.66-7.25-61.31-14.88c-20.11-7.81-39.12-18.5-56.38-31.46
						c-17.68-13.26-33.65-29.13-47-46.78c-12.95-17.13-23.7-36.02-31.62-56.02c-7.72-19.5-12.98-40.06-15.39-60.91
						c-2.41-20.86-2.21-42.11,0.84-62.9c3.08-21.01,8.87-41.7,17.37-61.16c8.76-20.06,20.24-38.97,34.1-55.89
						c14.26-17.42,30.89-32.91,49.4-45.68c17.97-12.4,37.61-22.33,58.26-29.35c20.31-6.9,41.51-11.08,62.91-12.31
						c21.39-1.23,42.92,0.37,63.87,4.89c21.18,4.57,41.72,12,60.89,22.15c9.6,5.09,18.85,10.84,27.69,17.17
						c1.61,1.15,4.06,0.28,4.99-1.31c1.07-1.84,0.3-3.86-1.31-5.01c-18.5-13.25-38.81-23.85-60.22-31.49
						c-20.9-7.46-42.82-11.97-64.94-13.53c-21.89-1.54-43.98-0.08-65.5,4.22c-21.78,4.35-42.94,11.74-62.76,21.81
						c-20.34,10.34-39.2,23.62-55.91,39.2c-16.83,15.7-31.52,33.82-43.4,53.57c-11.39,18.93-20.22,39.47-26.14,60.78
						c-5.82,20.93-8.87,42.68-9.06,64.41c-0.19,21.57,2.45,43.22,7.81,64.12c5.44,21.21,13.73,41.72,24.55,60.72
						c11.15,19.59,25.06,37.65,41.1,53.46c16.22,15.99,34.66,29.8,54.61,40.74c19.25,10.55,39.94,18.51,61.29,23.52
						c20.94,4.92,42.56,7.09,64.06,6.4c21.57-0.7,43.1-4.23,63.75-10.53c20.92-6.38,41.04-15.6,59.52-27.34
						c19.2-12.19,36.71-27.09,51.86-44.09c16.81-18.87,30.79-40.27,41.11-63.38c10-22.4,16.59-46.11,19.68-70.46
						c3.05-24.07,2.44-48.51-1.57-72.43c-1.94-11.57-4.72-22.98-8.28-34.16C841.36,901.17,834.32,903.08,835.75,907.59
						L835.75,907.59z"/>
				</g>
			</g>
		</g>
		<g>
			<g>
				<g>
					<path d="M852.47,897.96c13.56,21.67,23.65,45.36,29.83,70.2c6.19,24.89,8.35,50.7,6.43,76.28c-1.97,26.31-8.39,52.4-18.88,76.6
						c-9.15,21.12-21.24,41.03-35.96,58.7c-13.46,16.16-29.02,30.57-46.23,42.61c-16.9,11.83-35.31,21.5-54.66,28.59
						c-19.37,7.1-39.67,11.76-60.21,13.64c-20.67,1.9-41.62,1.16-62.07-2.41c-21.1-3.67-41.73-10.17-61.1-19.37
						c-19.65-9.33-38.09-21.26-54.53-35.55c-15.84-13.77-29.88-29.61-41.58-47.06c-11.55-17.24-20.9-35.97-27.66-55.62
						c-6.71-19.51-10.99-39.86-12.53-60.45c-1.57-20.83-0.48-41.87,3.4-62.4c4.01-21.21,10.84-41.87,20.34-61.23
						c9.8-19.98,22.27-38.62,37.14-55.15c14.44-16.04,31-30.09,49.2-41.64c17.83-11.32,37.11-20.26,57.27-26.51
						c20.15-6.25,41.06-9.84,62.13-10.58c21.39-0.75,42.83,1.38,63.65,6.4c10.41,2.51,20.64,5.74,30.64,9.61
						c1.84,0.71,4-0.79,4.49-2.56c0.57-2.07-0.7-3.79-2.55-4.51c-20.89-8.09-42.8-13.22-65.09-15.34
						c-21.84-2.08-43.92-1.09-65.52,2.72c-21.36,3.77-42.16,10.45-61.81,19.67c-19.79,9.29-38.27,21.28-54.91,35.49
						c-17.14,14.63-32.19,31.7-44.7,50.47c-12.61,18.91-22.6,39.61-29.63,61.24c-6.74,20.72-10.66,42.38-11.73,64.15
						c-1.04,21.34,0.75,42.83,5.2,63.73c4.44,20.89,11.63,41.2,21.24,60.25c9.65,19.14,21.83,36.98,36.07,52.96
						c14.69,16.48,31.66,30.92,50.19,42.86c18.87,12.16,39.45,21.75,60.88,28.37c20.69,6.39,42.27,9.97,63.9,10.67
						c21.23,0.68,42.59-1.47,63.28-6.27c20.71-4.81,40.81-12.37,59.61-22.33c18.89-10.02,36.48-22.57,52.15-37.16
						c16.11-15.01,30.18-32.26,41.73-51.03c13.83-22.48,24.13-47.24,30.21-72.96c6.1-25.81,8.03-52.64,5.61-79.06
						c-2.4-26.2-8.92-51.83-19.26-76c-5-11.69-10.92-22.96-17.66-33.73C856.28,890.28,849.97,893.95,852.47,897.96L852.47,897.96z"
						/>
				</g>
			</g>
		</g>
		<g>
			<g>
				<g>
					<path d="M866.28,884.44c35.49,33.79,60.19,78.09,70.1,126.22c9.82,47.69,4.6,98.33-14.62,143.04
						c-16.83,39.14-44.06,73.53-78.4,98.61c-33.96,24.8-74.32,40.6-116.12,44.85c-43.63,4.44-88.35-3.36-127.87-22.5
						c-38.13-18.47-71.03-47.15-94.55-82.52c-23.38-35.16-37.42-76.37-39.95-118.61c-2.64-44.02,6.98-88.6,27.65-127.52
						c19.93-37.53,49.83-69.31,85.94-91.5c36.19-22.23,78.07-34.57,120.49-35.22c10.69-0.16,21.39,0.4,32.01,1.65
						c1.96,0.23,3.65-1.85,3.65-3.67c0-2.17-1.68-3.43-3.65-3.67c-22.17-2.6-44.58-2.1-66.63,1.39
						c-21.51,3.4-42.46,9.79-62.32,18.75c-19.72,8.9-38.18,20.47-54.92,34.21c-16.86,13.83-31.8,29.95-44.45,47.75
						c-12.96,18.24-23.33,38.3-30.89,59.38c-7.76,21.62-12.46,44.35-14.04,67.27c-1.52,22.11,0.03,44.42,4.45,66.12
						c4.34,21.26,11.55,41.92,21.25,61.31c9.66,19.3,21.89,37.31,36.18,53.45c14.42,16.29,31.05,30.62,49.23,42.53
						c18.69,12.24,39.12,21.85,60.41,28.56c21.71,6.84,44.42,10.67,67.17,11.3c21.93,0.61,43.99-1.81,65.29-7.1
						c20.92-5.2,41.19-13.22,60.05-23.71c18.81-10.46,36.28-23.44,51.77-38.42c15.66-15.16,29.33-32.48,40.45-51.26
						c11.48-19.39,20.28-40.42,26.1-62.21c6.69-25.07,9.51-51.23,8.14-77.15c-1.34-25.31-6.57-50.42-15.53-74.11
						c-8.94-23.64-21.4-45.74-36.93-65.63c-7.43-9.51-15.56-18.45-24.29-26.76C868.03,876.01,862.86,881.18,866.28,884.44
						L866.28,884.44z"/>
				</g>
			</g>
		</g>
		<g>
			<g>
				<g>
					<path d="M876.31,867.89c40.55,22.63,74.08,56.88,95.77,98.1c22.12,42.04,31.05,90.38,26.05,137.63
						c-4.54,42.94-21.08,84.23-46.96,118.65c-25.25,33.58-59.64,60.42-98.34,76.54c-40.77,16.98-86.15,22.42-129.74,15.32
						c-42.22-6.88-82.32-25.25-115.06-52.93c-32.27-27.28-57.25-63.01-71.4-102.96c-14.92-42.13-17.88-88.34-8.33-132.04
						c9.29-42.5,30.23-82.04,60.08-113.57c29.8-31.49,67.95-54.55,109.67-66.03c10.35-2.85,20.89-4.98,31.53-6.43
						c1.95-0.27,3.03-2.78,2.55-4.51c-0.59-2.12-2.52-2.83-4.49-2.56c-22.52,3.07-44.46,9.33-65.28,18.48
						c-20.31,8.93-39.28,20.71-56.46,34.76c-17.07,13.97-32.18,30.28-44.98,48.28c-12.83,18.06-23.15,37.88-30.71,58.73
						c-7.81,21.52-12.51,44.15-14.1,67c-1.61,23.14,0.05,46.52,4.86,69.2c4.62,21.76,12.26,42.89,22.53,62.6
						c10.08,19.35,22.8,37.33,37.57,53.35c14.74,15.97,31.62,29.98,49.99,41.53c18.58,11.69,38.78,20.86,59.78,27.16
						c21.58,6.48,44.09,9.9,66.61,10.23c22.84,0.34,45.78-2.5,67.83-8.47c21.26-5.76,41.78-14.46,60.74-25.72
						c18.67-11.1,35.91-24.72,51.04-40.34c15.13-15.61,28.25-33.27,38.81-52.31c10.71-19.33,18.85-40.14,24.02-61.65
						c5.41-22.49,7.66-45.77,6.67-68.89c-1.06-24.68-5.74-49.24-14.04-72.5c-8.07-22.64-19.4-44.07-33.65-63.4
						c-14.18-19.24-31-36.29-50-50.73c-9.17-6.97-18.83-13.27-28.88-18.87C875.88,859.26,872.2,865.59,876.31,867.89L876.31,867.89z
						"/>
				</g>
			</g>
		</g>
		<g>
			<g>
				<g>
					<path d="M881.94,849.35c21.45,5.63,42.03,14.17,61.14,25.47c19.21,11.35,36.78,25.36,52.14,41.59
						c15.56,16.44,28.7,35.09,39.03,55.26c10.57,20.66,18.05,42.87,22.34,65.69c4.07,21.64,5.07,43.85,3.1,65.77
						c-1.91,21.22-6.77,42.18-14.19,62.13c-7.4,19.89-17.52,38.77-29.84,56.02c-12.33,17.27-27.03,32.84-43.44,46.24
						c-16.79,13.71-35.55,25.02-55.4,33.65c-20.47,8.9-42.4,14.94-64.53,17.75c-21.43,2.72-43.31,2.6-64.68-0.61
						c-20.9-3.14-41.47-9.01-60.81-17.56c-19.34-8.55-37.64-19.62-54.09-32.95c-16.51-13.38-31.32-28.95-43.72-46.25
						c-12.81-17.87-23.2-37.51-30.67-58.23c-7.77-21.57-12.57-44.24-13.99-67.14c-1.38-22.27,0.31-44.68,5.12-66.46
						c4.75-21.5,12.42-42.31,22.8-61.71c10.32-19.29,23.2-37.12,38.31-52.9c15.33-16.02,32.82-29.83,51.95-40.99
						c9.5-5.54,19.39-10.44,29.57-14.6c1.82-0.75,3.11-2.44,2.55-4.51c-0.47-1.74-2.65-3.31-4.49-2.56
						c-21.6,8.83-41.8,20.57-60.13,35.07c-17.7,14-33.33,30.5-46.57,48.81c-13.22,18.28-23.85,38.4-31.67,59.59
						c-7.89,21.39-12.74,43.88-14.49,66.62c-1.79,23.3-0.16,46.84,4.64,69.69c4.78,22.77,12.78,44.89,23.67,65.43
						c10.42,19.66,23.58,37.89,38.88,54c14.98,15.77,32.11,29.54,50.67,40.83c18.63,11.33,38.81,20.17,59.75,26.2
						c21.22,6.11,43.32,9.31,65.4,9.48c22.74,0.17,45.54-2.89,67.45-8.98c21.99-6.11,43.18-15.28,62.65-27.24
						c18.82-11.55,36.11-25.7,51.16-41.89c14.79-15.91,27.53-33.81,37.68-53.05c10.22-19.37,17.92-40.11,22.72-61.5
						c4.88-21.76,6.84-44.22,5.7-66.5c-1.19-23.26-5.65-46.37-13.22-68.38c-7.74-22.5-18.66-43.9-32.51-63.23
						c-13.46-18.79-29.47-35.68-47.6-49.97c-18.01-14.19-37.8-25.79-58.95-34.56c-10.25-4.25-20.77-7.77-31.5-10.59
						C879.33,841.08,877.4,848.15,881.94,849.35L881.94,849.35z"/>
				</g>
			</g>
		</g>
		<g>
			<g>
				<g>
					<path d="M882.84,829.97c23.09,0.1,46.06,3.52,68.18,10.19c22.04,6.65,43.05,16.5,62.3,29.17
						c19.74,12.99,37.46,28.98,52.53,47.22c14.94,18.08,27.23,38.51,36.31,60.17c8.31,19.81,14.01,40.86,16.7,62.19
						c2.62,20.79,2.57,41.97-0.25,62.73c-2.84,20.84-8.41,41.36-16.5,60.77c-8.05,19.3-18.69,37.65-31.49,54.17
						c-13.14,16.95-28.57,32.2-45.75,44.99c-17.79,13.24-37.4,24.13-58.11,32c-20,7.6-41.02,12.56-62.32,14.5
						c-20.74,1.89-41.75,1.11-62.27-2.46c-20.52-3.57-40.63-9.77-59.55-18.54c-19.08-8.85-37.07-20.19-53.18-33.76
						c-16.49-13.89-31.12-30-43.29-47.82c-12.94-18.94-23.24-39.69-30.36-61.53c-6.94-21.32-10.9-43.57-11.65-65.99
						c-0.74-21.91,1.5-43.86,6.68-65.16c5.2-21.38,13.28-41.99,24.04-61.15c10.92-19.45,24.52-37.31,40.38-52.96
						c7.81-7.71,16.15-14.89,24.95-21.44c1.58-1.18,2.38-3.17,1.31-5.01c-0.91-1.57-3.4-2.5-4.99-1.31
						c-18.75,13.96-35.4,30.39-49.56,49.02c-13.74,18.08-24.84,38.09-33.14,59.25c-8.26,21.05-13.53,43.21-15.82,65.71
						c-2.32,22.71-1.4,45.69,2.58,68.17c4.09,23.13,11.6,45.6,22.02,66.61c10.21,20.59,23.31,39.74,38.76,56.72
						c14.76,16.21,31.74,30.41,50.25,42.1c18.21,11.5,37.98,20.56,58.54,26.93c20.53,6.36,41.94,9.98,63.41,10.79
						c21.74,0.82,43.62-1.32,64.8-6.29c21.88-5.14,43.05-13.39,62.71-24.29c19.76-10.95,38.05-24.65,54.11-40.58
						c15.5-15.38,28.96-32.9,39.85-51.86c10.74-18.69,19.06-38.85,24.62-59.7c5.57-20.86,8.43-42.52,8.44-64.12
						c0.01-21.92-2.92-43.9-8.7-65.04c-6.04-22.11-15.2-43.39-27.04-62.98c-12.8-21.18-28.76-40.48-47.26-56.87
						c-17.92-15.88-38.13-29.14-59.85-39.15c-21.53-9.91-44.41-16.78-67.86-20.14c-11.44-1.64-22.95-2.52-34.51-2.57
						C878.15,822.62,878.14,829.95,882.84,829.97L882.84,829.97z"/>
				</g>
			</g>
		</g>
		<g>
			<g>
				<g>
					<path d="M878.92,810.97c22.38-5.67,45.46-8.09,68.52-7.16c23.08,0.93,45.96,5.27,67.81,12.78
						c22.3,7.67,43.41,18.75,62.49,32.66c18.89,13.77,35.86,30.48,49.95,49.18c13.02,17.28,23.8,36.34,31.7,56.52
						c7.7,19.68,12.89,40.41,15.19,61.43c2.28,20.87,1.94,42.11-1.23,62.87c-3.2,20.92-9.07,41.5-17.63,60.85
						c-8.74,19.76-20.11,38.39-33.81,55.06c-14.17,17.24-30.68,32.57-49,45.25c-17.69,12.24-36.99,22.1-57.3,29.12
						c-19.88,6.87-40.63,11.13-61.61,12.54c-20.88,1.41-41.94,0.12-62.47-3.96c-20.74-4.12-40.95-10.95-59.87-20.42
						c-19.5-9.75-37.63-22.17-53.77-36.87c-16.82-15.32-31.48-32.96-43.37-52.4c-11.52-18.84-20.39-39.22-26.32-60.51
						c-5.83-20.92-8.8-42.56-8.84-64.28c-0.04-21.7,2.83-43.33,8.55-64.26c5.79-21.15,14.46-41.42,25.76-60.19
						c5.63-9.34,11.88-18.3,18.73-26.78c1.24-1.54,1.49-3.68,0-5.18c-1.28-1.29-3.91-1.54-5.16,0
						c-14.43,17.86-26.43,37.58-35.39,58.75c-8.85,20.91-14.78,42.85-17.72,65.38c-2.89,22.15-2.66,44.59,0.42,66.7
						c3.11,22.29,9.35,44.04,18.35,64.65c9.25,21.18,21.55,40.92,36.3,58.67c14.8,17.81,32.12,33.5,51.25,46.5
						c18.23,12.39,38.17,22.23,59.02,29.27c20.51,6.92,41.95,11.05,63.54,12.36c21.55,1.31,43.26-0.29,64.41-4.64
						c21.39-4.4,42.17-11.74,61.63-21.67c20.08-10.25,38.72-23.37,55.27-38.71c16.75-15.53,31.37-33.43,43.25-52.98
						c11.41-18.78,20.27-39.17,26.3-60.32c5.94-20.86,9.11-42.56,9.45-64.25c0.34-21.69-2.19-43.48-7.47-64.51
						c-5.38-21.43-13.68-42.16-24.57-61.36c-11.33-19.99-25.51-38.38-41.87-54.46c-17.62-17.32-37.84-32.02-59.8-43.28
						c-21.27-10.92-44.12-18.72-67.62-22.99c-23.3-4.24-47.16-5.18-70.71-2.6c-11.56,1.27-23.02,3.31-34.29,6.17
						C872.43,805.05,874.36,812.12,878.92,810.97L878.92,810.97z"/>
				</g>
			</g>
		</g>
		<g>
			<g>
				<g>
					<path d="M870.38,793.54c22.14-12.11,46.08-20.65,70.85-25.31c24.78-4.66,50.39-5.32,75.38-1.95
						c25.62,3.46,50.71,11.2,73.85,22.77c20.71,10.36,39.95,23.65,56.88,39.5c15.41,14.43,28.88,30.88,39.97,48.89
						c10.88,17.67,19.45,36.71,25.45,56.6c5.98,19.81,9.43,40.35,10.18,61.04c0.76,20.91-1.18,41.88-5.85,62.28
						c-4.82,21.03-12.46,41.34-22.7,60.31c-10.41,19.28-23.36,37.12-38.55,52.87c-14.57,15.11-31.08,28.23-49.07,38.98
						c-17.77,10.62-36.85,18.87-56.73,24.56c-19.83,5.67-40.32,8.76-60.93,9.16c-20.85,0.4-41.7-1.94-61.94-7.01
						c-20.9-5.24-41.01-13.33-59.76-24c-19.36-11.02-37.16-24.68-52.77-40.62c-15.08-15.4-28.01-32.84-38.42-51.75
						c-10.25-18.61-17.97-38.55-23.01-59.21c-5.03-20.64-7.31-41.9-6.79-63.15c0.53-21.57,4-42.99,10.26-63.63
						c3.09-10.18,6.85-20.14,11.27-29.8c0.82-1.8,0.51-3.95-1.31-5.01c-1.57-0.92-4.16-0.49-4.99,1.31
						c-9.37,20.49-16.04,42.14-19.53,64.42c-3.43,21.85-4.01,44.08-1.54,66.06c2.44,21.74,7.63,43.11,15.64,63.46
						c8.06,20.48,18.73,39.87,31.9,57.49c13.59,18.17,29.56,34.32,47.54,48.13c18.14,13.94,38.21,25.23,59.44,33.66
						c20.25,8.04,41.53,13.22,63.17,15.59c21.22,2.33,42.67,1.75,63.77-1.49c21.01-3.22,41.49-9.26,60.98-17.75
						c19.67-8.57,38.09-19.79,54.87-33.19c17.31-13.83,32.62-30.06,45.61-48.03c13.22-18.29,23.88-38.4,31.71-59.6
						c7.56-20.46,12.29-41.91,14.21-63.64c1.9-21.44,0.9-43.08-2.77-64.27c-3.64-21.03-10.06-41.52-18.92-60.92
						c-8.95-19.6-20.51-37.93-34.21-54.51c-14.1-17.07-30.56-32.1-48.69-44.76c-21.47-14.99-45.35-26.55-70.41-34.03
						c-25.14-7.5-51.56-10.88-77.77-9.98c-25.76,0.89-51.42,5.83-75.65,14.67c-11.81,4.31-23.3,9.51-34.33,15.55
						C862.57,789.47,866.25,795.8,870.38,793.54L870.38,793.54z"/>
				</g>
			</g>
		</g>
		<g>
			<g>
				<g>
					<path d="M857.78,778.8c35.96-33.64,82.01-55.7,130.72-62.4c48.11-6.62,97.99,2.13,141.15,24.43
						c37.3,19.27,69.16,48.44,91.71,83.97c22.42,35.33,35.52,76.4,37.36,118.29c1.92,43.73-8.3,87.76-29.26,126.13
						c-20.14,36.88-49.97,68-85.83,89.7c-35.77,21.65-77.02,33.69-118.78,34.43c-43.86,0.78-87.7-10.86-125.49-33.23
						c-37.18-22.01-67.89-54.21-88.44-92.32c-20.51-38.05-30.47-81.46-28.54-124.69c0.47-10.63,1.66-21.21,3.55-31.69
						c0.83-4.61-6.2-6.59-7.03-1.95c-4.03,22.38-5.11,45.24-2.91,67.88c2.15,22.09,7.19,43.86,15.12,64.58
						c7.88,20.58,18.39,40.1,31.38,57.87c13.09,17.91,28.48,34.06,45.86,47.8c17.94,14.19,37.69,25.75,58.8,34.49
						c21.15,8.76,43.47,14.44,66.19,17.05c21.74,2.5,43.74,1.93,65.35-1.46c21.2-3.33,41.86-9.55,61.48-18.27
						c19.55-8.69,37.86-19.99,54.54-33.43c16.84-13.57,31.79-29.41,44.51-46.93c13.09-18.03,23.61-37.87,31.4-58.77
						c7.89-21.18,12.84-43.42,14.76-65.95c1.86-21.83,0.71-43.88-3.24-65.42c-3.89-21.17-10.62-41.77-19.81-61.22
						c-9.17-19.4-20.9-37.53-34.72-53.91c-13.98-16.57-30.18-31.21-47.98-43.52c-18.37-12.7-38.51-22.77-59.6-30.03
						c-24.51-8.43-50.38-12.97-76.28-13.32c-25.36-0.35-50.83,3.33-75.08,10.82c-23.96,7.4-46.82,18.48-67.46,32.78
						c-10.07,6.98-19.63,14.7-28.58,23.08C849.18,776.83,854.35,782.01,857.78,778.8L857.78,778.8z"/>
				</g>
			</g>
		</g>
		<g>
			<g>
				<g>
					<path d="M841.93,767.66c25.38-39.81,62.3-71.55,105.35-90.61c43.3-19.18,92.34-24.72,138.84-16.1
						c42.01,7.79,81.61,26.98,113.72,55.31c31.81,28.06,56.05,64.48,69.35,104.89c13.81,41.95,15.78,87.55,5.67,130.56
						c-9.78,41.63-30.78,80.21-60.32,110.99c-29.45,30.68-66.9,53.23-107.79,64.65c-42.63,11.9-88.39,11.54-130.86-0.91
						c-41.2-12.08-78.68-35.53-107.85-67.14c-29.29-31.74-49.67-71.32-58.51-113.69c-2.17-10.42-3.62-20.96-4.39-31.58
						c-0.34-4.68-7.63-4.71-7.29,0c1.63,22.68,6.26,45.1,13.99,66.48c7.5,20.74,17.73,40.48,30.44,58.48
						c12.69,17.97,27.69,34.27,44.65,48.25c17.09,14.09,35.98,25.92,56.2,34.91c20.66,9.19,42.48,15.55,64.87,18.71
						c23.02,3.25,46.29,3.29,69.32,0.09c22-3.06,43.44-9.24,63.8-18.14c19.87-8.69,38.46-20.09,55.38-33.69
						c16.95-13.62,31.99-29.51,44.82-47.1c12.97-17.78,23.46-37.3,31.26-57.9c8.01-21.14,12.98-43.37,14.97-65.89
						c2.03-22.92,0.83-46.1-3.49-68.69c-4.16-21.77-11.34-42.94-21.15-62.8c-9.61-19.45-21.84-37.58-36.15-53.85
						c-14.37-16.33-30.94-30.72-49.05-42.72c-18.37-12.16-38.41-21.8-59.35-28.59c-21.68-7.03-44.37-10.94-67.13-11.74
						c-25.07-0.88-50.33,2.12-74.5,8.9c-23.35,6.56-45.77,16.65-66.18,29.81c-20.11,12.96-38.39,28.86-53.95,47.07
						c-7.64,8.94-14.66,18.43-20.99,28.35C833.09,767.95,839.4,771.63,841.93,767.66L841.93,767.66z"/>
				</g>
			</g>
		</g>
		<g>
			<g>
				<g>
					<path d="M823.81,760.82c6.96-21.22,16.85-41.39,29.31-59.89c12.41-18.41,27.4-35.03,44.35-49.32
						c17.33-14.62,36.82-26.66,57.55-35.77c21.11-9.27,43.77-15.44,66.64-18.2c21.63-2.62,43.67-2.36,65.2,1.04
						c21.06,3.32,41.74,9.44,61.16,18.26c19.17,8.71,37.27,19.91,53.52,33.34c16.43,13.57,31.13,29.31,43.4,46.77
						c12.56,17.87,22.72,37.45,29.97,58.09c7.45,21.2,12.01,43.43,13.36,65.87c1.32,21.82-0.31,43.78-4.94,65.14
						c-4.53,20.89-11.82,41.14-21.68,60.08c-9.77,18.75-21.95,36.2-36.24,51.75c-14.49,15.77-31.04,29.57-49.19,40.91
						c-18.67,11.66-38.88,20.66-60.01,26.74c-21.89,6.3-44.61,9.49-67.38,9.37c-22.19-0.12-44.28-3.39-65.58-9.67
						c-20.82-6.15-40.72-15.16-59.13-26.7c-18.48-11.58-35.32-25.7-50.02-41.85c-14.91-16.39-27.47-34.87-37.3-54.75
						c-4.84-9.79-8.97-19.91-12.43-30.27c-1.48-4.45-8.53-2.54-7.03,1.95c7.33,21.96,17.63,42.9,30.76,61.95
						c12.8,18.59,28.11,35.42,45.46,49.81c17.25,14.31,36.36,26.32,56.81,35.45c20.64,9.22,42.44,15.66,64.81,18.87
						c23.16,3.32,46.58,3.31,69.74,0.02c22.97-3.26,45.39-9.84,66.56-19.38c20.27-9.14,39.2-21.14,56.26-35.43
						c16.7-13.99,31.45-30.25,43.92-48.13c12.51-17.95,22.58-37.59,29.97-58.2c7.49-20.9,12.09-42.81,13.73-64.96
						c1.71-22.91,0.1-46.05-4.54-68.54c-4.63-22.48-12.42-44.31-23.03-64.65c-10.25-19.64-23.23-37.87-38.34-54.04
						c-14.92-15.95-32.01-29.91-50.56-41.37c-18.59-11.48-38.75-20.48-59.69-26.65c-21.31-6.28-43.52-9.61-65.72-9.88
						c-23.28-0.28-46.65,2.82-69.08,9.08c-22.78,6.36-44.69,16.04-64.7,28.68c-19.45,12.29-37.21,27.35-52.5,44.6
						c-15.17,17.11-28.01,36.31-37.94,56.94c-4.83,10.04-9,20.4-12.47,30.99C815.31,763.37,822.35,765.29,823.81,760.82
						L823.81,760.82z"/>
				</g>
			</g>
		</g>
		<g>
			<g>
				<g>
					<path d="M804.57,758.69c1.53-22.92,6.36-45.55,14.23-67.11c7.84-21.48,18.83-41.79,32.37-60.18
						c13.81-18.75,30.51-35.51,49.19-49.36c18.84-13.96,39.71-25.21,61.75-33.14c20.23-7.28,41.42-11.86,62.85-13.41
						c21-1.52,42.19-0.28,62.86,3.79c20.52,4.04,40.53,10.72,59.31,19.96c18.82,9.25,36.46,20.95,52.22,34.81
						c16.24,14.28,30.53,30.74,42.34,48.89c12.12,18.62,21.69,38.88,28.3,60.12c6.42,20.61,10.06,42.04,10.73,63.63
						c0.66,21.12-1.46,42.27-6.32,62.82c-4.81,20.36-12.23,40.06-22.1,58.49c-10.01,18.69-22.43,36.01-36.98,51.4
						c-14.96,15.82-32.03,29.52-50.68,40.68c-19.59,11.72-40.76,20.63-62.83,26.36c-21.61,5.62-43.94,8.11-66.26,7.45
						c-21.9-0.64-43.65-4.37-64.56-10.96c-20.78-6.56-40.61-15.97-58.88-27.91c-18.62-12.17-35.47-26.99-50-43.86
						c-7.17-8.32-13.72-17.15-19.67-26.38c-2.54-3.95-8.86-0.28-6.3,3.7c12.59,19.53,27.85,37.32,45.38,52.53
						c17.11,14.85,36.22,27.35,56.72,36.95c20.39,9.55,42.01,16.35,64.21,20.02c22.41,3.7,45.28,4.37,67.85,1.74
						c23.32-2.72,46.09-8.74,67.71-17.93c21.22-9.02,41.08-20.98,59.02-35.5c17.1-13.85,32.23-30.06,45.04-47.99
						c12.6-17.64,22.77-36.96,30.38-57.28c7.56-20.21,12.39-41.39,14.5-62.87c2.15-21.86,1.29-43.96-2.4-65.6
						c-3.81-22.37-10.81-44.11-20.53-64.59c-9.74-20.54-22.34-39.69-37.29-56.78c-14.43-16.5-31.13-31-49.4-43.06
						c-18.02-11.9-37.65-21.36-58.13-28.15c-20.5-6.8-41.92-10.83-63.47-12.05c-21.89-1.23-43.94,0.56-65.37,5.23
						c-22.44,4.89-44.19,13.04-64.42,23.96c-21.49,11.6-41.29,26.46-58.42,43.91c-16.61,16.91-30.78,36.3-41.88,57.28
						c-11,20.8-19.08,43.19-23.81,66.27c-2.31,11.25-3.83,22.67-4.59,34.13C796.96,763.4,804.26,763.38,804.57,758.69L804.57,758.69
						z"/>
				</g>
			</g>
		</g>
		<g>
			<g>
				<g>
					<path d="M785.39,761.44c-4.22-22.73-5.11-46.05-2.76-69.05c2.35-23.01,8.14-45.7,16.92-67.08
						c8.92-21.72,21.2-42.19,36.11-60.29c14.92-18.11,32.44-34.05,51.91-47.09c17.83-11.94,37.21-21.48,57.57-28.19
						c19.86-6.54,40.53-10.47,61.4-11.6c20.72-1.12,41.56,0.42,61.87,4.69c20.45,4.3,40.35,11.23,58.99,20.73
						c19.1,9.73,36.87,22.02,52.69,36.53c16.31,14.97,30.57,32.14,42.22,51c11.26,18.23,20.06,37.91,26.07,58.5
						c5.88,20.12,9.12,40.96,9.6,61.93c0.48,20.85-1.71,41.72-6.58,62c-4.91,20.46-12.46,40.23-22.51,58.7
						c-10.33,18.97-23.19,36.47-38.2,51.96c-15.99,16.5-34.28,30.68-54.25,41.99c-19.59,11.09-40.71,19.31-62.61,24.44
						c-21.48,5.03-43.6,6.99-65.63,5.93c-21.99-1.05-43.78-5.2-64.64-12.23c-21.08-7.1-41.12-17.22-59.42-29.92
						c-9.12-6.33-17.76-13.32-25.91-20.87c-3.45-3.19-8.62,1.98-5.16,5.18c17.13,15.87,36.45,29.34,57.33,39.72
						c20.48,10.18,42.35,17.52,64.83,21.63c22.27,4.07,45.06,5.14,67.6,2.99c22.76-2.18,45.19-7.45,66.46-15.86
						c22.05-8.72,42.66-20.58,61.37-35.19c18.08-14.13,34.11-30.79,47.63-49.36c12.87-17.67,23.25-37.08,31.01-57.54
						c7.64-20.15,12.53-41.28,14.74-62.73c2.21-21.43,1.53-43.08-1.83-64.35c-3.41-21.63-9.79-42.71-18.77-62.67
						c-9.24-20.53-21.37-39.67-35.78-56.92c-14.45-17.3-31.27-32.56-49.83-45.29c-18.01-12.35-37.71-22.19-58.33-29.31
						c-20.26-6.99-41.45-11.25-62.81-12.76c-21.38-1.51-42.95-0.15-63.99,3.92c-21.35,4.14-42.11,11.21-61.62,20.86
						c-20.5,10.14-39.53,23.26-56.47,38.67c-18.23,16.59-34,35.97-46.5,57.26c-12.11,20.61-21.22,43.06-26.9,66.31
						c-5.64,23.04-7.99,46.94-6.9,70.64c0.54,11.63,1.91,23.23,4.03,34.68c0.36,1.95,2.7,3.05,4.49,2.56
						C784.87,765.39,785.75,763.39,785.39,761.44L785.39,761.44z"/>
				</g>
			</g>
		</g>
		<g>
			<g>
				<g>
					<path d="M767.49,768.93c-10.34-22.32-17.31-46.35-20.39-70.79c-3.09-24.51-2.51-49.53,1.95-73.83
						c4.59-24.97,13.1-49.13,25.24-71.4c11.27-20.67,25.5-39.65,42.22-56.19c15.09-14.93,32.13-27.76,50.62-38.14
						c18.12-10.18,37.51-17.91,57.63-23.05c20.11-5.14,40.83-7.62,61.59-7.4c20.87,0.22,41.64,3.21,61.73,8.89
						c20.69,5.84,40.49,14.52,58.87,25.71c18.83,11.47,36.04,25.5,51.07,41.67c14.41,15.5,26.68,32.93,36.51,51.71
						c9.65,18.43,16.83,38.12,21.43,58.42c4.61,20.34,6.54,41.23,5.79,62.08c-0.75,20.99-4.29,41.82-10.46,61.89
						c-6.38,20.71-15.6,40.46-27.27,58.69c-12.12,18.94-26.87,36.13-43.73,50.97c-16.22,14.27-34.42,26.24-53.86,35.59
						c-19.13,9.2-39.52,15.75-60.38,19.58c-20.94,3.84-42.4,4.78-63.6,2.94c-21.43-1.86-42.59-6.75-62.73-14.34
						c-9.95-3.75-19.61-8.21-28.97-13.26c-4.13-2.23-7.82,4.09-3.68,6.33c19.88,10.74,41.2,18.8,63.24,23.68
						c21.43,4.75,43.51,6.63,65.43,5.51c21.87-1.12,43.62-5.14,64.43-12.01c20.96-6.91,41.02-16.63,59.39-28.91
						c18.76-12.55,35.81-27.69,50.45-44.92c14.83-17.46,27.33-36.93,36.85-57.8c9.11-19.99,15.61-41.14,19.12-62.85
						c3.42-21.22,4.16-42.82,2.02-64.21c-2.14-21.4-6.95-42.49-14.48-62.62c-7.57-20.22-17.7-39.46-30.25-57.01
						c-12.97-18.13-28.31-34.48-45.65-48.44c-17.66-14.22-37.14-26.07-57.98-34.96c-20.02-8.54-41.04-14.42-62.59-17.36
						c-21.27-2.9-42.84-3.07-64.14-0.33c-21.25,2.73-42.08,8.11-61.93,16.24c-19.96,8.18-38.83,18.88-55.98,32.02
						c-17.87,13.69-33.73,29.71-47.31,47.71c-15.72,20.84-28.1,44.18-36.57,68.91c-8.28,24.18-12.71,49.72-13.18,75.29
						c-0.47,25.36,2.99,50.86,10.19,75.17c3.5,11.82,7.91,23.36,13.09,34.54c0.83,1.79,3.4,2.25,4.99,1.31
						C768.01,772.87,768.32,770.73,767.49,768.93L767.49,768.93z"/>
				</g>
			</g>
		</g>
		<g>
			<g>
				<g>
					<path d="M752,780.68c-15.67-19.2-28.42-40.93-37.48-64.04c-9.11-23.26-14.69-47.92-16.25-72.88
						c-1.61-25.65,0.9-51.45,7.46-76.28c6-22.71,15.26-44.49,27.5-64.51c11.05-18.08,24.5-34.61,39.9-49.12
						c15.11-14.23,32.06-26.41,50.31-36.26c18.18-9.81,37.58-17.21,57.65-22.03c20.26-4.87,41.11-7.03,61.94-6.43
						c21.45,0.61,42.73,4.19,63.23,10.54c21,6.5,41.06,15.88,59.52,27.85c17.7,11.47,33.8,25.34,47.86,41.09
						c13.82,15.47,25.55,32.77,34.95,51.29c9.37,18.47,16.31,38.15,20.68,58.41c4.42,20.49,6.09,41.53,5.04,62.47
						c-1.08,21.6-5.17,42.99-11.97,63.51c-7.04,21.26-17.05,41.48-29.63,59.97c-12.23,17.96-26.98,34.16-43.58,48.13
						c-16.26,13.67-34.41,25.09-53.67,33.99c-19.25,8.89-39.74,15.13-60.63,18.63c-21.2,3.55-42.92,4.1-64.29,1.79
						c-10.58-1.14-21.06-3.06-31.38-5.63c-4.56-1.13-6.5,5.94-1.94,7.07c21.82,5.41,44.38,7.88,66.84,7.14
						c22.03-0.73,43.99-4.45,65.03-11.04c20.79-6.52,40.77-15.8,59.14-27.56c18.6-11.91,35.64-26.32,50.41-42.79
						c15.08-16.82,27.87-35.72,37.8-56.04c10.07-20.59,17.38-42.56,21.46-65.14c3.89-21.51,4.99-43.52,3.08-65.3
						c-1.88-21.47-6.49-42.68-13.82-62.93c-7.27-20.07-17.05-39.21-29.17-56.75c-12.24-17.7-26.72-33.82-43.12-47.73
						c-16.94-14.36-35.77-26.43-55.93-35.7c-20.46-9.41-42.12-16.11-64.36-19.63c-21.56-3.41-43.49-4-65.19-1.56
						c-21.2,2.39-42.06,7.46-61.94,15.25c-19.91,7.8-38.81,18.09-56.07,30.76c-17.36,12.75-33.07,27.68-46.52,44.54
						c-13.93,17.45-25.51,36.71-34.26,57.28c-10.29,24.2-16.81,49.84-19.14,76.06c-2.29,25.77-0.4,51.91,5.41,77.11
						c5.76,24.98,15.45,49.1,28.54,71.12c6.37,10.71,13.57,20.89,21.44,30.53c1.25,1.53,3.86,1.3,5.16,0
						C753.51,784.35,753.26,782.21,752,780.68L752,780.68z"/>
				</g>
			</g>
		</g>
		<g>
			<g>
				<g>
					<path d="M739.91,795.92c-38.27-28.19-67.85-67.95-83.77-112.88c-16.05-45.3-18.08-95.02-5.93-141.52
						c10.88-41.65,33.06-79.88,63.68-110c30.07-29.58,67.81-50.9,108.61-61.25c42.59-10.8,87.93-9.35,129.84,3.84
						c40.74,12.82,77.55,36.85,106.01,68.79c28.12,31.56,47.59,70.53,56.01,112.03c8.81,43.43,5.17,89.18-10.04,130.76
						c-14.79,40.45-40.76,76.38-74.09,103.45c-33.15,26.92-73.48,44.49-115.65,50.62c-10.48,1.52-21.07,2.26-31.65,2.36
						c-4.69,0.04-4.7,7.37,0,7.33c22.5-0.21,44.98-3.48,66.58-9.83c20.96-6.16,41.14-15.17,59.74-26.67
						c18.57-11.48,35.66-25.46,50.58-41.43c15.04-16.09,27.97-34.22,38.21-53.76c10.46-19.94,18.2-41.35,22.86-63.4
						c4.78-22.63,6.49-45.95,4.88-69.03c-1.55-22.22-6.05-44.23-13.5-65.21c-7.26-20.47-17.16-39.98-29.49-57.84
						c-12.33-17.88-26.95-34.16-43.49-48.2c-16.71-14.19-35.25-26.18-55.11-35.41c-20.47-9.51-42.17-16.22-64.45-19.77
						c-22.5-3.58-45.42-4.18-68.05-1.45c-21.92,2.64-43.42,8.15-63.85,16.6c-20.08,8.3-39.04,19.15-56.27,32.44
						c-17.22,13.28-32.61,28.68-45.85,45.97c-13.41,17.51-24.34,36.78-32.63,57.24c-8.59,21.17-14.06,43.5-16.56,66.21
						c-2.78,25.31-1.6,51.02,3.43,75.98c4.87,24.19,13.48,47.64,25.28,69.28c11.68,21.4,26.57,41.1,43.95,58.15
						c8.45,8.29,17.52,15.92,27.04,22.94c1.6,1.18,4.05,0.26,4.99-1.31C742.32,799.09,741.49,797.09,739.91,795.92L739.91,795.92z"
						/>
				</g>
			</g>
		</g>
		<g>
			<g>
				<g>
					<path d="M731.96,813.71c-20.68-8.33-40.3-19.63-57.86-33.41c-17.75-13.93-33.64-30.36-46.83-48.72
						c-13.37-18.62-24.12-39.15-31.65-60.84c-7.67-22.06-12.15-45.22-13.22-68.57c-1.01-21.98,0.97-44.05,5.97-65.47
						c4.85-20.77,12.45-40.83,22.59-59.57c10.06-18.6,22.52-35.83,37.06-51.15c14.7-15.5,31.41-29,49.67-40.03
						c18.61-11.25,38.7-19.88,59.65-25.64c21.59-5.94,43.96-8.82,66.34-8.56c21.74,0.26,43.36,3.54,64.21,9.72
						c20.31,6.02,39.74,14.77,57.75,25.94c17.93,11.12,34.34,24.6,48.77,40.03c14.64,15.65,27.12,33.26,37.09,52.26
						c10.21,19.45,17.64,40.31,22.18,61.82c4.71,22.31,6.23,45.27,4.55,68.01c-1.64,22.12-6.45,43.98-14.09,64.79
						c-7.48,20.35-17.8,39.64-30.42,57.24c-12.61,17.58-27.68,33.4-44.49,46.96c-17.05,13.75-36.16,25.15-56.33,33.63
						c-10.08,4.24-20.45,7.74-31.01,10.57c-4.53,1.21-2.61,8.29,1.94,7.07c22.18-5.94,43.55-14.99,63.22-26.88
						c19.1-11.54,36.65-25.75,51.95-42.04c15.28-16.27,28.4-34.64,38.8-54.43c10.48-19.96,18.29-41.39,22.97-63.47
						c4.8-22.61,6.44-45.91,4.79-68.97c-1.67-23.24-6.5-46.26-14.53-68.13c-7.66-20.85-18.07-40.66-31.02-58.68
						c-12.79-17.8-27.86-33.9-44.87-47.69c-16.97-13.77-35.66-25.33-55.64-34.15c-20.13-8.89-41.35-15.13-63.12-18.31
						c-22.69-3.31-45.69-3.46-68.42-0.4c-22.78,3.07-44.98,9.29-66.06,18.51c-20.19,8.83-39.05,20.49-56.16,34.41
						c-16.95,13.8-31.96,29.92-44.72,47.7c-12.77,17.81-23.09,37.33-30.75,57.88c-7.76,20.8-12.6,42.63-14.52,64.75
						c-2.03,23.31-0.62,46.89,3.9,69.84c4.67,23.66,12.85,46.63,24.16,67.9c10.91,20.55,24.82,39.53,41.03,56.18
						c16.15,16.58,34.68,30.9,54.77,42.33c9.79,5.57,19.96,10.41,30.4,14.61c1.84,0.74,3.99-0.81,4.49-2.56
						C735.1,816.14,733.78,814.45,731.96,813.71L731.96,813.71z"/>
				</g>
			</g>
		</g>
		<g id="center">
			<path d="M879.84,836.33c0,2.07-0.08,4.14-0.24,6.21c-0.08,1-0.18,2-0.29,3c-0.03,0.25-0.06,0.5-0.09,0.75
				c-0.08,0.65,0.13-0.92,0-0.02c-0.07,0.49-0.14,0.99-0.22,1.48c-0.63,3.95-1.56,7.86-2.8,11.67c-0.6,1.85-1.26,3.67-2,5.46
				c-0.05,0.13-0.11,0.25-0.16,0.38c-0.15,0.37,0.19-0.44,0.17-0.4c-0.1,0.22-0.19,0.44-0.28,0.67c-0.21,0.47-0.42,0.95-0.63,1.41
				c-0.4,0.87-0.82,1.74-1.25,2.6c-1.73,3.45-3.73,6.76-5.95,9.91c-0.57,0.81-1.18,1.58-1.75,2.38c-0.03,0.04,0.5-0.65,0.26-0.34
				c-0.06,0.08-0.12,0.16-0.19,0.24c-0.15,0.19-0.29,0.37-0.44,0.56c-0.32,0.4-0.64,0.79-0.96,1.19c-1.21,1.46-2.48,2.88-3.79,4.25
				c-1.34,1.39-2.73,2.74-4.16,4.03c-0.71,0.63-1.42,1.26-2.15,1.86c-0.36,0.3-0.73,0.6-1.1,0.9c-0.19,0.15-0.37,0.3-0.56,0.44
				c-0.08,0.06-0.16,0.13-0.24,0.19c-0.34,0.27,0.76-0.58,0.18-0.14c-3.06,2.33-6.27,4.45-9.63,6.32c-1.71,0.94-3.45,1.82-5.22,2.64
				c-0.41,0.19-0.81,0.37-1.22,0.55c-0.22,0.1-0.44,0.19-0.66,0.29c-0.04,0.02,0.77-0.32,0.4-0.17c-0.16,0.06-0.32,0.13-0.48,0.2
				c-0.89,0.37-1.79,0.72-2.7,1.05c-3.69,1.36-7.49,2.43-11.34,3.2c-1,0.2-2.01,0.38-3.02,0.54c-0.45,0.07-0.91,0.14-1.37,0.21
				c-0.89,0.13,0.67-0.08,0.02,0c-0.28,0.03-0.56,0.07-0.85,0.1c-2.03,0.24-4.07,0.4-6.12,0.47c-4.08,0.15-8.16-0.01-12.22-0.5
				c-0.25-0.03-0.49-0.06-0.74-0.09c-0.41-0.05,0.49,0.07,0.44,0.06c-0.14-0.02-0.28-0.04-0.42-0.06c-0.49-0.07-0.98-0.14-1.47-0.22
				c-0.97-0.16-1.95-0.33-2.91-0.53c-1.95-0.39-3.89-0.87-5.81-1.41c-1.9-0.54-3.78-1.15-5.63-1.84c-0.9-0.34-1.8-0.69-2.69-1.06
				c-0.13-0.05-0.25-0.11-0.38-0.16c-0.04-0.02,0.76,0.33,0.4,0.17c-0.22-0.1-0.44-0.19-0.66-0.29c-0.44-0.19-0.88-0.39-1.31-0.59
				c-3.53-1.63-6.94-3.53-10.18-5.68c-1.59-1.05-3.1-2.2-4.64-3.32c0.89,0.65,0.22,0.17,0.02,0.01c-0.19-0.15-0.37-0.3-0.56-0.44
				c-0.4-0.32-0.79-0.64-1.18-0.97c-0.73-0.61-1.44-1.23-2.15-1.87c-2.84-2.57-5.5-5.34-7.94-8.3c-0.3-0.37-0.6-0.74-0.9-1.11
				c-0.15-0.19-0.29-0.37-0.44-0.56c-0.49-0.63,0.36,0.48,0.01,0.02c-0.59-0.79-1.18-1.58-1.75-2.39c-1.12-1.59-2.17-3.22-3.17-4.89
				c-0.98-1.65-1.9-3.33-2.76-5.04c-0.43-0.86-0.84-1.73-1.24-2.6c-0.2-0.44-0.39-0.88-0.59-1.32c-0.06-0.14-0.4-0.93-0.14-0.32
				c0.25,0.6-0.12-0.3-0.17-0.42c-1.48-3.64-2.68-7.4-3.58-11.23c-0.46-1.96-0.85-3.94-1.16-5.93c-0.07-0.46-0.14-0.92-0.2-1.37
				c-0.09-0.65,0.11,0.84,0,0.02c-0.04-0.28-0.07-0.57-0.1-0.85c-0.11-1-0.21-2-0.29-3c-0.31-4.1-0.3-8.22,0.03-12.31
				c0.08-1.04,0.19-2.07,0.31-3.11c0.03-0.25,0.07-0.5,0.09-0.74c0-0.05-0.12,0.85-0.06,0.44c0.02-0.11,0.03-0.21,0.04-0.32
				c0.07-0.53,0.15-1.06,0.24-1.58c0.32-1.99,0.72-3.96,1.2-5.91c0.93-3.82,2.17-7.55,3.64-11.2c0.3-0.74-0.26,0.6-0.01,0.02
				c0.08-0.19,0.16-0.38,0.25-0.57c0.21-0.47,0.42-0.94,0.63-1.41c0.42-0.9,0.85-1.8,1.3-2.69c0.87-1.71,1.79-3.39,2.78-5.03
				c1-1.66,2.07-3.29,3.19-4.87c0.26-0.36,0.51-0.72,0.78-1.07c0.14-0.19,0.28-0.38,0.43-0.57c0.08-0.11,0.66-0.87,0.27-0.36
				c-0.38,0.49,0.11-0.14,0.21-0.27c0.15-0.19,0.29-0.37,0.44-0.56c0.32-0.4,0.64-0.79,0.97-1.18c2.45-2.95,5.12-5.71,7.98-8.26
				c0.71-0.63,1.43-1.25,2.16-1.86c0.37-0.3,0.73-0.6,1.1-0.9c0.16-0.13,0.32-0.25,0.48-0.38c0.66-0.52-0.58,0.44,0.07-0.05
				c1.54-1.17,3.12-2.3,4.74-3.36c3.23-2.11,6.62-3.98,10.12-5.58c0.44-0.2,0.88-0.4,1.32-0.59c0.24-0.11,1.02-0.39-0.02,0
				c0.26-0.1,0.51-0.21,0.76-0.32c0.89-0.36,1.79-0.71,2.7-1.04c1.82-0.66,3.67-1.26,5.54-1.78c1.92-0.54,3.86-1,5.82-1.39
				c0.97-0.19,1.94-0.36,2.92-0.52c0.49-0.08,0.98-0.15,1.47-0.22c0.41-0.06-0.49,0.06-0.44,0.06c0.14-0.02,0.28-0.04,0.42-0.05
				c0.28-0.04,0.57-0.07,0.85-0.1c4.06-0.46,8.15-0.61,12.22-0.43c2.04,0.09,4.08,0.26,6.11,0.51c0.21,0.03,0.42,0.06,0.64,0.08
				c-1.15-0.13-0.29-0.04-0.02,0c0.53,0.08,1.05,0.16,1.57,0.24c0.97,0.16,1.94,0.34,2.91,0.54c3.88,0.8,7.71,1.89,11.42,3.28
				c0.9,0.34,1.8,0.7,2.69,1.06c0.58,0.24-0.82-0.36-0.02-0.01c0.19,0.08,0.38,0.16,0.57,0.25c0.47,0.21,0.94,0.42,1.41,0.64
				c1.77,0.82,3.5,1.71,5.2,2.66c1.66,0.93,3.29,1.93,4.88,2.98c0.82,0.54,1.63,1.1,2.43,1.68c0.36,0.26,0.71,0.52,1.07,0.78
				c0.19,0.14,0.38,0.28,0.57,0.43c0.11,0.08,0.22,0.16,0.32,0.25c0.39,0.3-0.16-0.12-0.26-0.2c2.96,2.46,5.85,4.92,8.51,7.71
				c1.33,1.4,2.61,2.85,3.84,4.35c0.3,0.37,0.6,0.74,0.89,1.11c0.13,0.16,0.25,0.32,0.38,0.48c0.14,0.18,0.38,0.55-0.2-0.26
				c0.08,0.11,0.16,0.22,0.25,0.32c0.57,0.76,1.13,1.53,1.68,2.31c2.23,3.19,4.23,6.54,5.96,10.03c0.43,0.86,0.84,1.73,1.23,2.61
				c0.2,0.44,0.39,0.88,0.58,1.32c0.04,0.09,0.08,0.19,0.12,0.29c0.16,0.37-0.18-0.44-0.17-0.4c0.1,0.26,0.21,0.51,0.31,0.77
				c0.74,1.83,1.41,3.69,2.01,5.57c1.2,3.78,2.11,7.66,2.72,11.59c0.08,0.49,0.14,0.99,0.21,1.48c0.01,0.05-0.11-0.86-0.06-0.44
				c0.02,0.14,0.04,0.28,0.05,0.43c0.03,0.25,0.06,0.5,0.09,0.75c0.11,0.96,0.2,1.93,0.27,2.9
				C879.77,832.33,879.84,834.33,879.84,836.33c0,1.92,1.68,3.75,3.65,3.67c1.97-0.09,3.65-1.61,3.65-3.67
				c-0.01-8.46-1.3-16.98-3.9-25.03c-2.51-7.78-6.17-15.21-10.89-21.88c-4.86-6.87-10.66-12.87-17.32-18
				c-6.46-4.98-13.67-8.87-21.32-11.69c-7.87-2.9-16.23-4.49-24.6-4.82c-8.46-0.33-17.03,0.69-25.17,3.01
				c-7.84,2.23-15.4,5.68-22.21,10.18c-6.76,4.47-12.9,9.92-18.05,16.2c-5.35,6.52-9.61,13.71-12.8,21.53
				c-3.17,7.77-5.02,16.03-5.66,24.4c-0.66,8.52,0.07,17.19,2.08,25.49c1.93,7.98,5.12,15.71,9.35,22.73
				c4.19,6.95,9.43,13.32,15.48,18.71c6.05,5.4,12.88,9.94,20.26,13.29c7.85,3.56,16.07,5.83,24.62,6.83
				c8.48,0.99,17.11,0.55,25.48-1.15c8.04-1.64,15.86-4.59,23.02-8.6c7.07-3.95,13.58-9.02,19.16-14.9
				c5.57-5.87,10.32-12.59,13.92-19.85c3.68-7.43,6.28-15.4,7.53-23.61c0.65-4.25,1.02-8.53,1.02-12.84c0-1.92-1.68-3.75-3.65-3.67
				C881.51,832.76,879.84,834.28,879.84,836.33z"/>
		</g>
	</g>
	<g id="Enigma">
		<path class="st0" d="M402.91,344.82c5.8,6.46,10.11,11.24,15.39,17.12c17.16-15.57,33.9-30.77,51.39-46.64
			c5.48,6.09,9.98,11.1,15.51,17.26c-17.06,15.49-33.81,30.68-51.17,46.44c5.51,6.13,9.99,11.12,15.12,16.83
			c20.75-18.84,41.37-37.55,63.27-57.43c5.41,6.02,10.22,11.37,15.79,17.57c-3.44,3.53-6.28,6.75-9.44,9.63
			c-21.76,19.84-43.55,39.65-65.41,59.39c-11.04,9.97-17.04,9.87-26.99-1.03c-18.1-19.83-35.89-39.94-53.86-59.89
			c-6.44-7.15-9.2-14.78-1.12-22.21c25.2-23.17,50.68-46.04,76.08-68.99c0.77-0.69,1.94-0.93,4.77-2.22
			c4.47,4.52,9.35,9.44,15.33,15.49C445.42,306.24,424.6,325.14,402.91,344.82z"/>
		<path d="M514.47,244.17c24.44-16.81,35.38-15.19,51.06-3.81c18.64,13.52,38.6,25.21,61.38,39.88
			c-8.44-24.58-15.73-45.77-23.61-68.72c11.64-4.04,21.52-7.47,32.24-11.19c12.61,36.69,24.75,72.04,36.89,107.41
			c-11.43,13.8-31.34,17.09-45.96,7.64c-21.14-13.66-42.31-27.28-65.8-39.32c7.42,21.59,14.84,43.19,22.68,66
			c-11.32,3.93-20.97,7.28-31.48,10.92C539.11,315.88,526.86,280.24,514.47,244.17z"/>
		<path d="M678.44,187.04c11.58-2.14,21.59-3.98,32.33-5.96c7.09,38.82,13.85,75.87,20.95,114.74c-10.68,1.97-20.96,3.87-32.33,5.96
			C692.38,263.42,685.57,226.11,678.44,187.04z"/>
		<path d="M873.45,206.6c-19.97-1.28-37.09-3.47-54.16-3.2c-21.64,0.35-32.58,13.13-32.26,34.83c0.3,20.72,11.85,32.78,32.88,33.52
			c8.64,0.3,17.32-0.67,26.3-1.08c0-7.73,0-13.81,0-20.59c-7.37-0.37-14.15-0.71-22.22-1.11c0-7.99,0-14.97,0-23.26
			c16.33,0,31.7-0.93,46.82,0.64c3.87,0.4,9.27,8.39,9.88,13.39c1.46,11.99,1.61,24.43-0.01,36.37
			c-0.71,5.27-6.09,12.56-10.92,14.16c-27,8.94-54.66,10.13-82.28,2.3c-15.16-4.3-25.26-14.42-30.98-29.05
			c-16.62-42.54,4.54-80.17,50.03-84.66c22.92-2.26,46.41,1.25,72.72,2.28C876.64,192.62,874.94,200.04,873.45,206.6z"/>
		<path d="M1087.12,238.34c-13.37,37.62-25.86,72.78-38.86,109.36c-10.16-3.64-19.52-7.01-30.98-11.12
			c8.08-22.74,16.07-45.23,24.06-67.71c-1.08-0.59-2.16-1.18-3.24-1.77c-12.8,14.73-25.6,29.46-39.29,45.21
			c-9.67-3.47-19.25-6.91-28.78-10.33c-0.79-21.42-1.53-41.4-2.27-61.38c-0.88-0.15-1.77-0.29-2.65-0.44
			c-8.04,22.61-16.07,45.23-24.56,69.12c-10.74-3.85-20.12-7.22-30.88-11.08c12.87-36.23,25.45-71.61,38.9-109.48
			c14.59,5.23,29.14,10.46,44.15,15.84c1.09,23.1,2.11,45.01,3.29,69.93c13.24-14.91,25.49-27.23,35.94-40.94
			c7.91-10.38,16.66-12.23,27.67-7.69C1068.86,229.68,1077.83,234.1,1087.12,238.34z"/>
		<path d="M1180.37,292.92c10.55,7.87,20.33,15.16,30.4,22.67c-8.47,42.28-16.72,83.44-25.49,127.18
			c-11.39-8.5-20.26-15.11-30.01-22.38c1.54-7.46,3.08-14.89,4.69-22.67c-14.12-10.53-28.2-21.03-42.9-31.99
			c-6.32,3.32-12.73,6.68-20.52,10.76c-8.78-6.55-17.89-13.34-29.87-22.28C1105.51,333.27,1142.28,313.45,1180.37,292.92z
			 M1167.07,370.55c3.4-13.66,6.47-25.97,10.25-41.16c-13.72,8.13-24.54,14.54-36.47,21.61
			C1150.14,357.92,1158.07,363.84,1167.07,370.55z"/>
	</g>
	<g id="Energia_al_Instante">
		<g>
			<path d="M338.04,1222.51c-0.39,0.31-0.75,0.55-1.09,0.73c-0.34,0.17-0.66,0.27-0.97,0.28c-0.31,0.01-0.58-0.04-0.81-0.16
				c-0.23-0.12-0.44-0.29-0.62-0.52l-21.08-26.72c-0.52-0.66-0.85-1.42-0.97-2.27c-0.13-0.85,0.23-1.62,1.07-2.29l37.37-29.77
				c0.84-0.67,1.66-0.84,2.46-0.52c0.8,0.32,1.46,0.81,1.98,1.47l20.84,26.42c0.18,0.23,0.3,0.47,0.36,0.73
				c0.06,0.26,0.04,0.52-0.06,0.79c-0.1,0.27-0.27,0.56-0.51,0.86c-0.24,0.3-0.57,0.63-1,0.97c-0.39,0.31-0.76,0.54-1.11,0.7
				c-0.35,0.16-0.66,0.26-0.93,0.29c-0.27,0.03-0.53-0.01-0.76-0.13c-0.23-0.12-0.44-0.29-0.62-0.52l-17.18-21.77l-13.15,10.47
				l14.73,18.68c0.18,0.23,0.3,0.48,0.35,0.74c0.05,0.26,0.04,0.53-0.03,0.8c-0.07,0.27-0.24,0.55-0.49,0.85
				c-0.26,0.3-0.59,0.61-1,0.94c-0.39,0.31-0.75,0.55-1.07,0.71c-0.33,0.17-0.63,0.25-0.9,0.26c-0.27,0.01-0.52-0.05-0.75-0.18
				c-0.22-0.13-0.42-0.3-0.61-0.53l-14.73-18.68l-14.99,11.94l17.42,22.08c0.18,0.23,0.3,0.47,0.36,0.73
				c0.06,0.26,0.06,0.53-0.01,0.82c-0.07,0.29-0.23,0.58-0.47,0.87C338.81,1221.85,338.48,1222.16,338.04,1222.51z"/>
			<path d="M390.07,1277.07c-0.39,0.39-0.81,0.64-1.25,0.74c-0.45,0.1-0.9,0.1-1.35-0.01c-0.46-0.11-0.89-0.29-1.32-0.56
				c-0.42-0.27-0.81-0.58-1.15-0.93l-2.2-2.21c-0.69-0.7-1.24-1.36-1.66-1.99c-0.41-0.63-0.71-1.32-0.89-2.07
				c-0.18-0.75-0.26-1.61-0.24-2.57c0.02-0.96,0.15-2.08,0.39-3.37l6.28-36.93c0.31-1.92,0.68-3.89,1.09-5.93
				c0.41-2.04,0.84-3.98,1.29-5.84l-0.08-0.08c-1.35,1.46-2.75,2.94-4.18,4.43c-1.44,1.49-2.88,2.96-4.32,4.41l-22.84,22.91
				c-0.14,0.14-0.32,0.21-0.56,0.23c-0.24,0.02-0.52-0.07-0.84-0.26c-0.33-0.19-0.72-0.47-1.19-0.85c-0.47-0.38-1.03-0.89-1.68-1.55
				c-0.65-0.66-1.16-1.22-1.54-1.69c-0.37-0.47-0.65-0.87-0.82-1.18c-0.18-0.31-0.26-0.59-0.24-0.83c0.02-0.24,0.1-0.42,0.23-0.56
				l34.92-35.03c0.78-0.78,1.63-1.05,2.54-0.79c0.92,0.26,1.72,0.73,2.41,1.43l3.27,3.29c0.77,0.78,1.37,1.47,1.79,2.09
				c0.42,0.62,0.72,1.25,0.91,1.89c0.19,0.64,0.27,1.35,0.26,2.14c-0.01,0.79-0.11,1.7-0.29,2.73l-4.9,28.46
				c-0.29,1.74-0.59,3.44-0.88,5.08c-0.29,1.64-0.6,3.25-0.91,4.81c-0.31,1.56-0.62,3.11-0.92,4.63c-0.3,1.52-0.61,3.04-0.93,4.56
				l0.04,0.04c1.49-1.6,3.06-3.24,4.71-4.92c1.65-1.69,3.25-3.3,4.79-4.85l20.53-20.59c0.14-0.14,0.32-0.21,0.54-0.22
				c0.23-0.01,0.51,0.07,0.86,0.25c0.35,0.17,0.75,0.45,1.21,0.83c0.46,0.38,1.03,0.92,1.71,1.6c0.6,0.6,1.09,1.14,1.49,1.62
				c0.4,0.48,0.67,0.88,0.83,1.22c0.16,0.33,0.23,0.61,0.22,0.84c-0.01,0.23-0.08,0.41-0.22,0.55L390.07,1277.07z"/>
			<path d="M439.97,1318.27c-0.31,0.39-0.61,0.71-0.9,0.95c-0.29,0.25-0.58,0.41-0.88,0.49c-0.3,0.08-0.57,0.09-0.83,0.03
				c-0.25-0.06-0.49-0.18-0.72-0.37l-26.53-21.27c-0.66-0.53-1.14-1.19-1.46-1.99c-0.32-0.8-0.14-1.63,0.53-2.47l29.74-37.46
				c0.67-0.84,1.43-1.2,2.28-1.07c0.85,0.13,1.6,0.46,2.26,0.99l26.23,21.03c0.23,0.18,0.4,0.39,0.52,0.63
				c0.12,0.24,0.15,0.5,0.11,0.78c-0.04,0.29-0.14,0.6-0.3,0.95c-0.16,0.35-0.41,0.74-0.76,1.17c-0.31,0.39-0.62,0.7-0.92,0.94
				c-0.3,0.24-0.59,0.4-0.84,0.49c-0.26,0.09-0.52,0.11-0.77,0.05c-0.25-0.06-0.49-0.18-0.72-0.37l-21.62-17.33l-10.46,13.18
				l18.54,14.86c0.23,0.18,0.4,0.4,0.5,0.64c0.11,0.25,0.16,0.51,0.15,0.78c-0.01,0.28-0.11,0.59-0.29,0.94
				c-0.18,0.35-0.44,0.73-0.77,1.14c-0.31,0.39-0.6,0.7-0.88,0.94c-0.28,0.24-0.55,0.39-0.82,0.46c-0.27,0.07-0.52,0.07-0.77,0
				c-0.25-0.07-0.48-0.2-0.71-0.38l-18.54-14.86l-11.93,15.03l21.91,17.57c0.23,0.18,0.4,0.39,0.52,0.63
				c0.12,0.23,0.17,0.5,0.17,0.8c0,0.3-0.09,0.62-0.27,0.95C440.57,1317.46,440.31,1317.84,439.97,1318.27z"/>
			<path d="M496.17,1357.91c-0.12,0.19-0.27,0.32-0.45,0.4c-0.18,0.08-0.46,0.07-0.82-0.03c-0.37-0.1-0.84-0.31-1.42-0.62
				c-0.58-0.31-1.33-0.76-2.25-1.35c-0.8-0.51-1.44-0.96-1.91-1.33c-0.48-0.37-0.84-0.71-1.08-1.01c-0.24-0.3-0.39-0.6-0.44-0.9
				c-0.05-0.3-0.05-0.62,0.01-0.98l1.31-14.19c0.13-1.63,0.17-3.17,0.12-4.63c-0.05-1.46-0.31-2.86-0.79-4.21
				c-0.48-1.35-1.24-2.64-2.27-3.87c-1.03-1.24-2.45-2.44-4.26-3.6l-5.29-3.4l-12.26,19.28c-0.12,0.19-0.29,0.31-0.52,0.36
				c-0.23,0.05-0.51,0.02-0.86-0.08c-0.34-0.11-0.79-0.29-1.33-0.56c-0.54-0.27-1.2-0.65-1.97-1.14c-0.77-0.49-1.39-0.93-1.86-1.32
				c-0.47-0.38-0.83-0.71-1.09-0.99c-0.26-0.28-0.4-0.53-0.43-0.75c-0.03-0.22,0.01-0.42,0.13-0.61l26.66-41.91
				c0.58-0.91,1.3-1.34,2.16-1.3c0.86,0.04,1.64,0.29,2.35,0.74l12.66,8.13c1.5,0.97,2.74,1.8,3.7,2.5c0.96,0.7,1.82,1.34,2.57,1.92
				c2.11,1.78,3.84,3.57,5.19,5.35c1.35,1.79,2.3,3.57,2.86,5.34c0.56,1.77,0.73,3.5,0.5,5.18c-0.23,1.68-0.84,3.3-1.83,4.86
				c-0.96,1.52-2.1,2.7-3.4,3.56c-1.3,0.86-2.75,1.42-4.35,1.69c-1.6,0.27-3.32,0.29-5.16,0.06c-1.84-0.23-3.79-0.67-5.83-1.33
				c0.77,0.96,1.4,1.94,1.88,2.96c0.48,1.01,0.84,2.09,1.09,3.24c0.25,1.14,0.39,2.37,0.42,3.67c0.03,1.3,0,2.72-0.12,4.26l-1,13.4
				c-0.1,1.12-0.2,1.88-0.3,2.3C496.39,1357.43,496.29,1357.73,496.17,1357.91z M504.48,1318.45c1.13-1.77,1.56-3.61,1.29-5.5
				c-0.26-1.9-1.45-3.9-3.57-6.01c-0.66-0.66-1.46-1.33-2.38-2.02c-0.92-0.69-2.17-1.54-3.73-2.55l-6.68-4.29l-9.7,15.25l7.74,4.97
				c2.09,1.34,4.01,2.31,5.78,2.9c1.76,0.59,3.37,0.87,4.82,0.83c1.45-0.04,2.71-0.37,3.78-1
				C502.9,1320.41,503.78,1319.55,504.48,1318.45z"/>
			<path d="M580.59,1349.89c-0.23,0.47-0.46,0.88-0.7,1.2c-0.24,0.33-0.48,0.58-0.73,0.75c-0.25,0.17-0.49,0.26-0.73,0.27
				c-0.24,0-0.48-0.05-0.71-0.16c-0.39-0.19-0.94-0.75-1.62-1.67c-0.69-0.92-1.67-2.04-2.93-3.37c-1.27-1.32-2.86-2.74-4.78-4.26
				c-1.92-1.52-4.35-3-7.31-4.43c-3.51-1.71-6.89-2.76-10.14-3.14c-3.26-0.39-6.26-0.19-9.03,0.59c-2.76,0.78-5.23,2.1-7.41,3.96
				c-2.17,1.86-3.93,4.18-5.26,6.94c-1.49,3.09-2.25,6.1-2.27,9.05c-0.02,2.94,0.57,5.72,1.78,8.34c1.21,2.62,2.99,5.03,5.35,7.22
				c2.36,2.2,5.2,4.1,8.51,5.71c1.97,0.96,4.05,1.75,6.24,2.37c2.19,0.62,4.33,0.99,6.41,1.12l6.79-14.09l-14.75-7.18
				c-0.56-0.27-0.87-0.69-0.95-1.25c-0.07-0.56,0.1-1.29,0.54-2.18c0.23-0.47,0.46-0.86,0.68-1.17c0.23-0.3,0.47-0.53,0.72-0.67
				c0.25-0.14,0.5-0.21,0.74-0.22c0.24,0,0.51,0.07,0.81,0.21l20.21,9.84c0.36,0.18,0.7,0.4,1.01,0.68
				c0.31,0.28,0.57,0.58,0.77,0.93c0.2,0.34,0.3,0.73,0.29,1.16c0,0.43-0.11,0.87-0.33,1.32l-8.88,18.42
				c-0.31,0.65-0.73,1.14-1.25,1.47c-0.52,0.33-1.35,0.44-2.47,0.34c-1.13-0.1-2.54-0.31-4.26-0.62c-1.71-0.31-3.44-0.71-5.19-1.19
				c-1.75-0.48-3.48-1.05-5.19-1.7c-1.71-0.65-3.37-1.36-4.98-2.15c-4.92-2.39-9.03-5.11-12.34-8.16c-3.31-3.04-5.79-6.28-7.42-9.73
				c-1.64-3.44-2.44-7-2.41-10.68c0.03-3.68,0.94-7.36,2.71-11.04c1.85-3.84,4.29-6.94,7.31-9.31c3.03-2.37,6.45-3.98,10.28-4.82
				c3.83-0.84,7.97-0.92,12.44-0.24c4.47,0.68,9.06,2.17,13.78,4.47c2.43,1.18,4.63,2.45,6.6,3.81c1.97,1.36,3.68,2.66,5.13,3.91
				c1.44,1.24,2.61,2.39,3.5,3.46c0.88,1.06,1.46,1.86,1.73,2.39c0.27,0.53,0.38,1.05,0.34,1.55
				C581.18,1348.44,580.97,1349.09,580.59,1349.89z"/>
			<path d="M591.6,1402.35c-0.08,0.21-0.21,0.36-0.41,0.47c-0.2,0.1-0.48,0.14-0.85,0.1c-0.38-0.04-0.86-0.13-1.44-0.28
				c-0.59-0.15-1.31-0.38-2.16-0.71c-0.82-0.31-1.51-0.61-2.06-0.89c-0.56-0.28-0.99-0.54-1.29-0.76c-0.31-0.22-0.5-0.43-0.58-0.64
				c-0.08-0.21-0.08-0.41,0-0.62l18.09-48.26c0.08-0.21,0.22-0.36,0.43-0.46c0.21-0.1,0.51-0.12,0.91-0.08
				c0.39,0.04,0.88,0.14,1.47,0.29c0.59,0.15,1.27,0.37,2.06,0.67c0.85,0.32,1.55,0.62,2.09,0.9c0.54,0.28,0.96,0.53,1.27,0.75
				c0.31,0.22,0.5,0.43,0.58,0.64c0.08,0.21,0.08,0.41,0,0.62L591.6,1402.35z M616.75,1339.77c0.5-0.19,0.96-0.32,1.39-0.36
				c0.43-0.05,0.88-0.04,1.36,0.03c0.48,0.06,1.04,0.19,1.67,0.39c0.63,0.19,1.37,0.45,2.22,0.77c1.02,0.39,1.8,0.75,2.34,1.08
				c0.54,0.34,0.89,0.64,1.06,0.91c0.17,0.27,0.17,0.51,0,0.71c-0.17,0.2-0.46,0.37-0.87,0.52l-14.7,3.84
				c-0.44,0.13-0.83,0.21-1.17,0.24c-0.34,0.03-0.72,0.02-1.13-0.03c-0.41-0.05-0.87-0.15-1.38-0.3c-0.51-0.15-1.12-0.36-1.84-0.63
				c-0.78-0.3-1.39-0.56-1.8-0.79c-0.42-0.23-0.69-0.45-0.8-0.66c-0.12-0.21-0.1-0.4,0.04-0.58c0.15-0.18,0.43-0.36,0.84-0.53
				L616.75,1339.77z"/>
			<path d="M665.99,1423.81c0.12,0.67,0.13,1.18,0.05,1.55c-0.08,0.36-0.29,0.6-0.62,0.71c-0.33,0.11-0.83,0.09-1.49-0.03
				c-0.66-0.13-1.54-0.35-2.63-0.66c-1.09-0.31-1.95-0.57-2.59-0.8c-0.64-0.22-1.11-0.43-1.42-0.62c-0.31-0.19-0.52-0.38-0.63-0.59
				s-0.21-0.45-0.28-0.73l-2.31-14.24l-28.3-8.01l-9.06,10.85c-0.17,0.21-0.37,0.38-0.59,0.5c-0.22,0.12-0.52,0.2-0.89,0.22
				c-0.37,0.03-0.87-0.02-1.49-0.14c-0.63-0.12-1.43-0.32-2.42-0.6c-1.02-0.29-1.84-0.56-2.47-0.81c-0.63-0.25-1.05-0.51-1.26-0.77
				c-0.21-0.26-0.26-0.57-0.14-0.92c0.12-0.35,0.4-0.79,0.84-1.29l36.3-41.58c0.22-0.25,0.47-0.44,0.75-0.56
				c0.28-0.12,0.65-0.17,1.12-0.16c0.47,0.02,1.05,0.1,1.75,0.26c0.69,0.15,1.57,0.38,2.62,0.68c1.12,0.32,2.05,0.6,2.77,0.85
				c0.73,0.25,1.3,0.49,1.73,0.73c0.43,0.24,0.73,0.49,0.92,0.76c0.19,0.27,0.31,0.57,0.37,0.9L665.99,1423.81z M648.58,1373.11
				l-0.05-0.01l-18.96,22.46l23.67,6.7L648.58,1373.11z"/>
			<path d="M765.97,1438.26c0.22,0.64,0.32,1.14,0.3,1.52c-0.02,0.37-0.19,0.64-0.5,0.8c-0.31,0.16-0.8,0.23-1.48,0.21
				c-0.68-0.02-1.58-0.09-2.7-0.21c-1.12-0.12-2.02-0.24-2.68-0.36c-0.67-0.12-1.17-0.24-1.5-0.37c-0.33-0.13-0.57-0.29-0.72-0.48
				c-0.14-0.18-0.28-0.41-0.39-0.67l-4.61-13.67l-29.22-3.23l-7.16,12.2c-0.14,0.24-0.3,0.43-0.5,0.59
				c-0.2,0.16-0.48,0.28-0.84,0.37c-0.36,0.09-0.86,0.12-1.5,0.11c-0.64-0.02-1.47-0.08-2.48-0.19c-1.05-0.12-1.91-0.25-2.57-0.39
				c-0.66-0.14-1.12-0.33-1.37-0.55c-0.25-0.22-0.35-0.52-0.29-0.89c0.06-0.37,0.27-0.84,0.62-1.41l29-47.01
				c0.18-0.29,0.39-0.51,0.65-0.68c0.26-0.17,0.62-0.28,1.08-0.34c0.46-0.06,1.05-0.07,1.76-0.04s1.61,0.11,2.7,0.23
				c1.16,0.13,2.12,0.25,2.87,0.38c0.76,0.12,1.36,0.27,1.82,0.43c0.46,0.16,0.8,0.36,1.03,0.59c0.23,0.23,0.4,0.51,0.51,0.83
				L765.97,1438.26z M740.5,1391.13l-0.05-0.01l-15.02,25.29l24.44,2.7L740.5,1391.13z"/>
			<path d="M820.55,1438.27c0,0.55-0.05,1.02-0.12,1.39c-0.08,0.37-0.2,0.69-0.36,0.95c-0.17,0.26-0.37,0.45-0.61,0.58
				c-0.24,0.12-0.52,0.18-0.85,0.18l-31.26-0.28c-0.84-0.01-1.63-0.23-2.37-0.66c-0.74-0.44-1.11-1.19-1.1-2.27l0.43-49.74
				c0-0.22,0.08-0.41,0.22-0.58c0.15-0.16,0.4-0.29,0.77-0.39c0.36-0.09,0.86-0.17,1.48-0.24c0.62-0.06,1.37-0.09,2.24-0.08
				c0.91,0.01,1.67,0.05,2.27,0.12c0.6,0.07,1.08,0.16,1.45,0.26c0.36,0.1,0.62,0.23,0.76,0.4c0.14,0.17,0.22,0.36,0.21,0.58
				l-0.4,46.46l25.36,0.22c0.33,0,0.61,0.07,0.84,0.19c0.24,0.13,0.43,0.31,0.6,0.55c0.16,0.24,0.28,0.55,0.35,0.94
				C820.53,1437.24,820.56,1437.71,820.55,1438.27z"/>
			<path d="M875.01,1435.96c0.02,0.22-0.03,0.42-0.15,0.6c-0.13,0.18-0.37,0.34-0.72,0.48c-0.35,0.14-0.82,0.27-1.41,0.41
				c-0.59,0.13-1.34,0.25-2.24,0.35c-0.87,0.1-1.62,0.14-2.24,0.14c-0.62,0-1.12-0.03-1.49-0.09c-0.37-0.06-0.64-0.16-0.8-0.31
				c-0.16-0.15-0.26-0.33-0.28-0.55l-5.55-51.27c-0.02-0.22,0.04-0.42,0.18-0.6c0.15-0.18,0.4-0.34,0.77-0.48
				c0.37-0.14,0.85-0.27,1.44-0.41c0.59-0.13,1.3-0.25,2.14-0.34c0.9-0.1,1.66-0.15,2.27-0.14c0.61,0,1.09,0.03,1.47,0.09
				c0.37,0.06,0.64,0.16,0.8,0.31c0.16,0.15,0.26,0.33,0.28,0.55L875.01,1435.96z"/>
			<path d="M951.58,1420.7c0.11,0.54,0.08,1.03-0.08,1.46c-0.16,0.43-0.42,0.8-0.75,1.13c-0.34,0.32-0.74,0.59-1.2,0.79
				c-0.46,0.21-0.93,0.36-1.41,0.46l-3.05,0.62c-0.96,0.2-1.82,0.29-2.57,0.29c-0.75,0-1.49-0.14-2.21-0.4
				c-0.73-0.26-1.48-0.67-2.26-1.21c-0.78-0.55-1.64-1.28-2.58-2.19l-27.16-25.67c-1.42-1.32-2.86-2.72-4.32-4.19
				c-1.46-1.47-2.84-2.9-4.13-4.31l-0.11,0.02c0.46,1.94,0.92,3.92,1.36,5.95c0.44,2.03,0.87,4.05,1.27,6.05l6.39,31.79
				c0.04,0.19,0,0.39-0.12,0.6c-0.12,0.21-0.34,0.39-0.68,0.56c-0.34,0.17-0.79,0.34-1.36,0.53c-0.57,0.19-1.31,0.37-2.21,0.55
				c-0.9,0.18-1.66,0.3-2.25,0.35c-0.6,0.05-1.08,0.06-1.43,0.04c-0.36-0.03-0.63-0.11-0.82-0.26c-0.19-0.15-0.3-0.31-0.34-0.5
				l-9.76-48.6c-0.22-1.08,0.03-1.94,0.75-2.57c0.72-0.63,1.56-1.04,2.52-1.23l4.53-0.92c1.07-0.22,1.98-0.33,2.72-0.34
				c0.75-0.01,1.44,0.08,2.07,0.28c0.63,0.2,1.27,0.52,1.92,0.97c0.65,0.45,1.35,1.03,2.1,1.75l20.9,19.82
				c1.28,1.21,2.53,2.39,3.73,3.54c1.2,1.15,2.36,2.3,3.49,3.42c1.12,1.13,2.24,2.24,3.34,3.33c1.1,1.09,2.19,2.19,3.28,3.3
				l0.05-0.01c-0.5-2.13-1-4.35-1.48-6.67c-0.48-2.32-0.94-4.55-1.37-6.69l-5.74-28.57c-0.04-0.19,0-0.38,0.12-0.58
				c0.12-0.19,0.34-0.39,0.68-0.58c0.33-0.19,0.79-0.38,1.36-0.55c0.57-0.17,1.33-0.35,2.27-0.55c0.83-0.17,1.55-0.29,2.16-0.35
				c0.61-0.07,1.1-0.08,1.47-0.02c0.36,0.05,0.64,0.15,0.82,0.28c0.18,0.13,0.29,0.29,0.33,0.48L951.58,1420.7z"/>
			<path d="M1008.28,1390.58c0.76,2.4,0.86,4.72,0.3,6.97c-0.57,2.25-1.67,4.35-3.32,6.32c-1.65,1.97-3.76,3.73-6.35,5.29
				c-2.58,1.56-5.49,2.86-8.71,3.9c-2.26,0.73-4.39,1.25-6.41,1.58c-2.02,0.33-3.85,0.53-5.49,0.59c-1.64,0.06-3.05,0.04-4.22-0.08
				c-1.17-0.12-2-0.27-2.5-0.46c-0.5-0.19-0.92-0.49-1.27-0.92c-0.35-0.43-0.65-1.05-0.91-1.87c-0.18-0.58-0.3-1.07-0.36-1.48
				c-0.05-0.4-0.05-0.75,0.02-1.03c0.06-0.28,0.18-0.5,0.36-0.66c0.18-0.16,0.41-0.28,0.68-0.37c0.49-0.16,1.24-0.15,2.27,0.01
				c1.03,0.16,2.32,0.29,3.88,0.37c1.56,0.08,3.39,0.04,5.49-0.13c2.11-0.17,4.44-0.67,7.01-1.49c1.94-0.63,3.66-1.4,5.15-2.31
				c1.49-0.91,2.7-1.92,3.63-3.02c0.93-1.1,1.54-2.28,1.83-3.53c0.29-1.26,0.22-2.56-0.21-3.9c-0.46-1.45-1.29-2.55-2.49-3.3
				c-1.2-0.75-2.63-1.28-4.3-1.6c-1.67-0.32-3.52-0.51-5.55-0.57c-2.03-0.06-4.1-0.12-6.22-0.18c-2.12-0.06-4.22-0.2-6.28-0.44
				c-2.06-0.24-3.99-0.68-5.76-1.33c-1.78-0.65-3.34-1.58-4.7-2.78c-1.36-1.2-2.37-2.85-3.04-4.93c-0.68-2.14-0.78-4.2-0.29-6.21
				c0.49-2,1.47-3.86,2.93-5.59c1.46-1.72,3.35-3.28,5.68-4.68c2.33-1.4,4.95-2.57,7.86-3.51c1.49-0.48,3.02-0.86,4.6-1.15
				c1.57-0.29,3.08-0.48,4.52-0.58c1.44-0.1,2.75-0.11,3.92-0.04c1.17,0.07,1.96,0.18,2.37,0.33c0.41,0.14,0.69,0.27,0.84,0.38
				c0.15,0.11,0.3,0.27,0.44,0.47c0.14,0.2,0.28,0.46,0.41,0.76c0.13,0.31,0.28,0.71,0.44,1.21c0.15,0.47,0.26,0.91,0.33,1.29
				c0.07,0.39,0.09,0.72,0.06,1c-0.02,0.28-0.11,0.52-0.27,0.7c-0.15,0.18-0.35,0.31-0.59,0.39c-0.38,0.12-1.04,0.13-1.97,0.02
				c-0.93-0.11-2.06-0.2-3.39-0.28c-1.33-0.08-2.86-0.05-4.59,0.08c-1.74,0.14-3.61,0.53-5.62,1.18c-1.87,0.6-3.44,1.32-4.71,2.15
				c-1.27,0.83-2.25,1.71-2.95,2.63c-0.7,0.92-1.14,1.89-1.31,2.91c-0.17,1.02-0.1,2.01,0.21,2.99c0.45,1.42,1.28,2.51,2.47,3.26
				c1.19,0.75,2.64,1.29,4.33,1.61c1.69,0.33,3.56,0.52,5.61,0.59c2.05,0.07,4.13,0.13,6.26,0.19c2.12,0.06,4.23,0.19,6.33,0.4
				c2.09,0.21,4.04,0.63,5.83,1.26c1.79,0.63,3.36,1.55,4.72,2.75C1006.63,1386.93,1007.64,1388.55,1008.28,1390.58z"/>
			<path d="M1051.29,1334.05c0.21,0.48,0.35,0.92,0.44,1.3c0.08,0.39,0.1,0.72,0.04,1c-0.06,0.28-0.18,0.52-0.35,0.71
				c-0.17,0.2-0.4,0.35-0.66,0.47l-18.28,7.87l18.26,42.83c0.09,0.2,0.1,0.41,0.03,0.62c-0.07,0.21-0.25,0.43-0.55,0.67
				c-0.3,0.23-0.71,0.5-1.23,0.8c-0.53,0.3-1.21,0.63-2.04,0.99c-0.8,0.35-1.5,0.61-2.1,0.79c-0.6,0.18-1.08,0.3-1.45,0.35
				c-0.37,0.06-0.66,0.04-0.86-0.06c-0.2-0.09-0.34-0.24-0.43-0.45l-18.26-42.83l-18.28,7.87c-0.27,0.12-0.53,0.17-0.79,0.16
				c-0.26-0.01-0.51-0.09-0.73-0.25c-0.23-0.16-0.46-0.4-0.69-0.72c-0.24-0.32-0.46-0.72-0.66-1.21c-0.21-0.48-0.35-0.93-0.42-1.33
				c-0.07-0.4-0.09-0.75-0.06-1.04c0.04-0.29,0.14-0.53,0.32-0.72c0.17-0.2,0.39-0.35,0.66-0.47l45.21-19.46
				c0.27-0.12,0.53-0.17,0.79-0.16c0.26,0.01,0.52,0.09,0.76,0.26c0.25,0.16,0.48,0.42,0.71,0.76
				C1050.87,1333.15,1051.08,1333.57,1051.29,1334.05z"/>
			<path d="M1123.2,1349.54c0.55,0.4,0.91,0.75,1.11,1.07c0.19,0.32,0.21,0.64,0.04,0.94c-0.16,0.31-0.53,0.65-1.09,1.02
				c-0.57,0.37-1.35,0.83-2.34,1.37c-0.99,0.54-1.79,0.96-2.41,1.24c-0.61,0.29-1.09,0.47-1.44,0.55c-0.35,0.08-0.64,0.09-0.86,0.02
				c-0.22-0.07-0.46-0.18-0.7-0.32l-11.54-8.59l-25.84,14.1l1.04,14.13c0.02,0.27,0,0.53-0.08,0.78c-0.07,0.25-0.23,0.51-0.48,0.78
				c-0.25,0.28-0.64,0.59-1.17,0.94c-0.53,0.35-1.25,0.78-2.15,1.27c-0.93,0.51-1.71,0.89-2.33,1.15c-0.63,0.26-1.1,0.37-1.44,0.33
				c-0.33-0.04-0.58-0.23-0.74-0.56c-0.16-0.34-0.26-0.84-0.29-1.52l-2.86-55.24c-0.02-0.34,0.03-0.65,0.15-0.93
				c0.12-0.28,0.35-0.58,0.7-0.9c0.35-0.32,0.82-0.66,1.43-1.04c0.6-0.38,1.39-0.83,2.35-1.35c1.02-0.56,1.88-1,2.57-1.33
				c0.69-0.33,1.27-0.56,1.74-0.69c0.47-0.13,0.86-0.16,1.19-0.1c0.32,0.06,0.62,0.19,0.89,0.39L1123.2,1349.54z M1075.53,1325.42
				l-0.05,0.03l2.01,29.38l21.61-11.79L1075.53,1325.42z"/>
			<path d="M1182.14,1307.86c0.32,0.45,0.49,0.91,0.52,1.36c0.03,0.46-0.05,0.9-0.23,1.34c-0.18,0.43-0.43,0.84-0.77,1.22
				c-0.33,0.38-0.7,0.71-1.1,0.99l-2.53,1.82c-0.8,0.57-1.54,1.01-2.22,1.32c-0.69,0.31-1.41,0.49-2.18,0.55
				c-0.77,0.06-1.62,0-2.56-0.18c-0.94-0.18-2.02-0.49-3.25-0.94l-35.24-12.26c-1.83-0.62-3.71-1.31-5.65-2.04
				c-1.93-0.74-3.77-1.48-5.52-2.24l-0.09,0.06c1.21,1.58,2.43,3.2,3.67,4.87c1.23,1.67,2.44,3.33,3.62,5l18.77,26.38
				c0.11,0.16,0.16,0.35,0.14,0.59c-0.02,0.24-0.15,0.5-0.39,0.79c-0.24,0.29-0.58,0.64-1.03,1.04c-0.45,0.4-1.04,0.88-1.79,1.42
				c-0.75,0.54-1.39,0.95-1.91,1.25c-0.53,0.29-0.96,0.5-1.29,0.62c-0.34,0.12-0.62,0.16-0.85,0.1c-0.23-0.06-0.4-0.16-0.51-0.32
				l-28.69-40.33c-0.64-0.9-0.76-1.78-0.36-2.65c0.4-0.87,1-1.58,1.79-2.16l3.76-2.7c0.89-0.64,1.67-1.11,2.35-1.43
				c0.68-0.32,1.34-0.52,2-0.6c0.66-0.08,1.37-0.05,2.15,0.09c0.77,0.14,1.65,0.39,2.63,0.74l27.14,9.5
				c1.66,0.57,3.28,1.14,4.85,1.7c1.57,0.56,3.09,1.12,4.58,1.69c1.49,0.57,2.95,1.12,4.4,1.66c1.45,0.54,2.89,1.1,4.33,1.66
				l0.04-0.03c-1.33-1.74-2.68-3.56-4.06-5.48c-1.39-1.91-2.71-3.76-3.98-5.54l-16.87-23.71c-0.11-0.16-0.15-0.35-0.12-0.57
				c0.03-0.22,0.16-0.49,0.38-0.81c0.23-0.31,0.56-0.67,1.02-1.06c0.45-0.39,1.07-0.87,1.85-1.43c0.69-0.49,1.3-0.9,1.83-1.21
				c0.53-0.31,0.98-0.52,1.33-0.62c0.35-0.1,0.64-0.13,0.86-0.08c0.22,0.05,0.39,0.15,0.5,0.3L1182.14,1307.86z"/>
			<path d="M1202.6,1226.3c0.35,0.39,0.63,0.75,0.83,1.09c0.2,0.34,0.32,0.65,0.36,0.93c0.04,0.29,0,0.55-0.1,0.79
				c-0.1,0.24-0.26,0.46-0.48,0.66l-14.77,13.39l31.06,34.59c0.15,0.16,0.22,0.36,0.23,0.58c0,0.22-0.1,0.49-0.3,0.81
				c-0.21,0.32-0.51,0.7-0.91,1.16c-0.4,0.46-0.94,0.99-1.61,1.6c-0.65,0.59-1.23,1.07-1.73,1.43c-0.51,0.37-0.93,0.64-1.26,0.81
				c-0.34,0.17-0.61,0.25-0.83,0.22c-0.22-0.03-0.4-0.12-0.55-0.28l-31.06-34.59l-14.77,13.39c-0.22,0.2-0.45,0.33-0.7,0.41
				c-0.25,0.08-0.51,0.08-0.77,0c-0.27-0.08-0.56-0.23-0.89-0.45c-0.33-0.23-0.66-0.53-1.01-0.93c-0.35-0.39-0.63-0.77-0.83-1.12
				c-0.2-0.36-0.33-0.68-0.39-0.96c-0.06-0.28-0.04-0.54,0.07-0.79c0.1-0.24,0.26-0.46,0.48-0.66l36.52-33.11
				c0.22-0.2,0.45-0.33,0.7-0.41c0.25-0.08,0.52-0.08,0.81,0c0.29,0.07,0.59,0.24,0.91,0.49
				C1201.91,1225.59,1202.24,1225.91,1202.6,1226.3z"/>
			<path d="M1272.14,1220.35c0.37,0.33,0.67,0.65,0.9,0.95c0.23,0.3,0.38,0.61,0.44,0.91c0.06,0.3,0.06,0.58-0.02,0.83
				c-0.08,0.25-0.21,0.49-0.4,0.7l-22.59,25.45c-0.56,0.63-1.24,1.08-2.06,1.35c-0.82,0.27-1.62,0.05-2.43-0.67l-35.58-31.9
				c-0.8-0.72-1.11-1.5-0.93-2.35c0.18-0.84,0.55-1.58,1.1-2.21l22.34-25.16c0.19-0.22,0.41-0.38,0.65-0.48
				c0.24-0.1,0.5-0.13,0.78-0.07c0.28,0.06,0.59,0.18,0.93,0.36c0.34,0.18,0.71,0.46,1.12,0.82c0.37,0.33,0.66,0.66,0.88,0.97
				c0.22,0.32,0.36,0.61,0.44,0.87c0.08,0.27,0.08,0.52,0,0.78c-0.08,0.25-0.21,0.49-0.4,0.7l-18.41,20.73l12.52,11.22l15.79-17.78
				c0.19-0.22,0.42-0.37,0.67-0.47c0.25-0.09,0.51-0.13,0.79-0.11c0.27,0.02,0.58,0.14,0.91,0.34c0.34,0.2,0.7,0.48,1.09,0.83
				c0.37,0.33,0.66,0.65,0.88,0.94c0.22,0.29,0.36,0.58,0.41,0.85c0.06,0.27,0.04,0.53-0.05,0.77c-0.09,0.24-0.23,0.47-0.42,0.69
				l-15.79,17.78l14.28,12.8l18.66-21.02c0.19-0.22,0.41-0.38,0.65-0.48c0.24-0.1,0.51-0.15,0.8-0.13c0.3,0.02,0.61,0.13,0.93,0.32
				C1271.36,1219.7,1271.73,1219.99,1272.14,1220.35z"/>
		</g>
	</g>
</g>
</svg>
